<svg width="55" height="55" viewBox="0 0 55 55" fill="none" xmlns="http://www.w3.org/2000/svg">
<path d="M48.3542 28.6459L51.5625 31.8772L36.5979 46.9792L28.6458 38.9584L31.8542 35.7272L36.5979 40.4938L48.3542 28.6459ZM22.9167 38.9584L29.7917 45.8334H6.875V41.2501C6.875 36.1855 15.0792 32.0834 25.2083 32.0834L29.5396 32.3355L22.9167 38.9584ZM25.2083 9.16675C27.6395 9.16675 29.9711 10.1325 31.6901 11.8516C33.4092 13.5707 34.375 15.9023 34.375 18.3334C34.375 20.7646 33.4092 23.0961 31.6901 24.8152C29.9711 26.5343 27.6395 27.5001 25.2083 27.5001C22.7772 27.5001 20.4456 26.5343 18.7265 24.8152C17.0074 23.0961 16.0417 20.7646 16.0417 18.3334C16.0417 15.9023 17.0074 13.5707 18.7265 11.8516C20.4456 10.1325 22.7772 9.16675 25.2083 9.16675Z" fill="#FFCC00"/>
<path d="M36.5338 47L28 38.6081L31.889 34.7838L36.5338 39.3649L50.111 26L54 29.8243L36.5338 47Z" fill="#1CAF22"/>
</svg>
