<svg width="25" height="16" viewBox="0 0 25 16" fill="none" xmlns="http://www.w3.org/2000/svg">
<path d="M5.93682 6C5.51931 4.83 4.38897 4 3.05497 4C2.24474 4 1.4677 4.31607 0.894779 4.87868C0.321862 5.44129 0 6.20435 0 7C0 7.79565 0.321862 8.55871 0.894779 9.12132C1.4677 9.68393 2.24474 10 3.05497 10C4.38897 10 5.51931 9.17 5.93682 8H8.14658V10H10.1832V8H11.2015V6H5.93682ZM3.05497 8C2.78489 8 2.52588 7.89464 2.3349 7.70711C2.14393 7.51957 2.03664 7.26522 2.03664 7C2.03664 6.73478 2.14393 6.48043 2.3349 6.29289C2.52588 6.10536 2.78489 6 3.05497 6C3.32504 6 3.58406 6.10536 3.77503 6.29289C3.966 6.48043 4.07329 6.73478 4.07329 7C4.07329 7.26522 3.966 7.51957 3.77503 7.70711C3.58406 7.89464 3.32504 8 3.05497 8ZM16.2932 0C15.2129 0 14.1768 0.421427 13.4129 1.17157C12.649 1.92172 12.2199 2.93913 12.2199 4C12.2199 5.06087 12.649 6.07828 13.4129 6.82843C14.1768 7.57857 15.2129 8 16.2932 8C17.3735 8 18.4095 7.57857 19.1734 6.82843C19.9373 6.07828 20.3664 5.06087 20.3664 4C20.3664 2.93913 19.9373 1.92172 19.1734 1.17157C18.4095 0.421427 17.3735 0 16.2932 0ZM16.2932 6.1C15.726 6.1 15.1821 5.87875 14.781 5.48492C14.38 5.0911 14.1547 4.55695 14.1547 4C14.1547 3.44305 14.38 2.9089 14.781 2.51508C15.1821 2.12125 15.726 1.9 16.2932 1.9C17.4744 1.9 18.4316 2.84 18.4316 4C18.4316 5.16 17.4744 6.1 16.2932 6.1ZM16.2932 9C13.5742 9 8.14658 10.33 8.14658 13V16H24.4397V13C24.4397 10.33 19.0121 9 16.2932 9ZM22.5049 14.1H10.0814V13C10.0814 12.36 13.2382 10.9 16.2932 10.9C19.3176 10.9 22.5049 12.36 22.5049 13V14.1Z" fill="#666666"/>
</svg>
