<svg width="19" height="20" viewBox="0 0 19 20" fill="none" xmlns="http://www.w3.org/2000/svg">
<path d="M16.3628 2H12.1828C11.7628 0.84 10.6628 0 9.36279 0C8.06279 0 6.96279 0.84 6.54279 2H2.36279C1.26279 2 0.362793 2.9 0.362793 4V18C0.362793 19.1 1.26279 20 2.36279 20H16.3628C17.4628 20 18.3628 19.1 18.3628 18V4C18.3628 2.9 17.4628 2 16.3628 2ZM9.36279 2C9.91279 2 10.3628 2.45 10.3628 3C10.3628 3.55 9.91279 4 9.36279 4C8.81279 4 8.36279 3.55 8.36279 3C8.36279 2.45 8.81279 2 9.36279 2ZM4.36279 6H14.3628V4H16.3628V18H2.36279V4H4.36279V6ZM9.36279 16V14H14.3628V16H9.36279ZM9.36279 10V8H14.3628V10H9.36279ZM5.36279 11V8H4.36279V7H6.36279V11H5.36279ZM6.61279 13C7.02279 13 7.36279 13.34 7.36279 13.75C7.36279 13.95 7.28279 14.14 7.15279 14.27L5.48279 16H7.36279V17H4.36279V16.08L6.36279 14H4.36279V13H6.61279Z" fill="#999999"/>
</svg>
