<svg width="19" height="20" viewBox="0 0 19 20" fill="none" xmlns="http://www.w3.org/2000/svg">
<path d="M16.8296 2H12.6496C12.2296 0.84 11.1296 0 9.82959 0C8.52959 0 7.42959 0.84 7.00959 2H2.82959C1.72959 2 0.82959 2.9 0.82959 4V18C0.82959 19.1 1.72959 20 2.82959 20H16.8296C17.9296 20 18.8296 19.1 18.8296 18V4C18.8296 2.9 17.9296 2 16.8296 2ZM4.82959 7H6.82959V11H5.82959V8H4.82959V7ZM7.82959 16V17H4.82959V16.08L6.82959 14H4.82959V13H7.07959C7.48959 13 7.82959 13.34 7.82959 13.75C7.82959 13.95 7.74959 14.14 7.61959 14.27L5.94959 16H7.82959ZM8.82959 3C8.82959 2.45 9.27959 2 9.82959 2C10.3796 2 10.8296 2.45 10.8296 3C10.8296 3.55 10.3796 4 9.82959 4C9.27959 4 8.82959 3.55 8.82959 3ZM14.8296 16H9.82959V14H14.8296V16ZM14.8296 10H9.82959V8H14.8296V10Z" fill="#666666"/>
</svg>
