<svg width="24" height="19" viewBox="0 0 24 19" fill="none" xmlns="http://www.w3.org/2000/svg">
<path d="M23.3536 4.35355C23.5488 4.15829 23.5488 3.84171 23.3536 3.64645L20.1716 0.464466C19.9763 0.269204 19.6597 0.269204 19.4645 0.464466C19.2692 0.659728 19.2692 0.976311 19.4645 1.17157L22.2929 4L19.4645 6.82843C19.2692 7.02369 19.2692 7.34027 19.4645 7.53553C19.6597 7.7308 19.9763 7.7308 20.1716 7.53553L23.3536 4.35355ZM1 4.5H23V3.5H1V4.5Z" fill="#666666"/>
<path d="M0.646446 14.6464C0.451185 14.8417 0.451185 15.1583 0.646446 15.3536L3.82843 18.5355C4.02369 18.7308 4.34027 18.7308 4.53553 18.5355C4.7308 18.3403 4.7308 18.0237 4.53553 17.8284L1.70711 15L4.53553 12.1716C4.7308 11.9763 4.7308 11.6597 4.53553 11.4645C4.34027 11.2692 4.02369 11.2692 3.82843 11.4645L0.646446 14.6464ZM23 14.5L1 14.5V15.5L23 15.5V14.5Z" fill="#666666"/>
</svg>
