<svg width="72" height="58" viewBox="0 0 72 58" fill="none" xmlns="http://www.w3.org/2000/svg">
<path d="M47.25 19.1433H29.735L36.8134 11.8583C29.7609 4.88333 18.3425 4.625 11.29 11.6C4.23753 18.6008 4.23753 29.89 11.29 36.9167C18.3425 43.8917 29.7609 43.8917 36.8134 36.9167C40.3267 33.4292 42.0834 29.3733 42.0834 24.2583H47.25C47.25 29.3733 44.9767 36.0125 40.43 40.5075C31.3625 49.4975 16.6375 49.4975 7.57003 40.5075C-1.47164 31.5433 -1.54914 16.9733 7.51836 8.00917C16.5859 -0.955 31.13 -0.955 40.1975 8.00917L47.25 0.75V19.1433ZM25.2917 13.6667V24.6458L34.3334 30.0192L32.4734 33.145L21.4167 26.5833V13.6667H25.2917Z" fill="#FFCC00"/>
<circle cx="53.5" cy="39.5" r="18.5" fill="white"/>
<path d="M49.2209 47L42 39.807L45.2907 36.529L49.2209 40.4556L60.7093 29L64 32.278L49.2209 47Z" fill="#1CAF22"/>
</svg>
