<svg width="33" height="30" viewBox="0 0 33 30" fill="none" xmlns="http://www.w3.org/2000/svg">
<path d="M20.5154 17.5141C20.4015 17.3056 20.2094 17.1509 19.9814 17.0841C19.9807 17.0839 19.9801 17.0837 19.9795 17.0835C19.752 17.0173 19.5075 17.044 19.2996 17.1576L15.9945 18.9641L11.9734 11.6052L15.2786 9.7987C15.7128 9.56141 15.8724 9.01712 15.6351 8.58298L11.9285 1.79984C11.8146 1.59129 11.6225 1.43665 11.3945 1.36976C11.3938 1.36956 11.3932 1.3694 11.3926 1.36921C11.1651 1.30304 10.9206 1.32966 10.7127 1.44334L7.76283 3.05558C4.65503 4.75413 3.50838 8.66446 5.20657 11.7724L5.20663 11.7724L12.1993 24.5693C13.0191 26.0695 14.3795 27.1623 16.03 27.6463L16.044 27.6503C17.6901 28.1291 19.4197 27.9429 20.9155 27.1253L23.8655 25.513C24.2996 25.2757 24.4592 24.7315 24.222 24.2973L20.5154 17.5141ZM10.7859 3.44517L13.6333 8.65602L12.0446 9.52428L9.18916 4.31794L10.7859 3.44517ZM16.5443 25.9298C16.5409 25.9288 16.5375 25.9279 16.5341 25.9269C15.343 25.5776 14.362 24.7903 13.7717 23.7102L6.77907 10.9132C5.74401 9.01902 6.17473 6.71168 7.68592 5.30324L10.5476 10.5209C10.1341 11.0663 10.0521 11.8259 10.401 12.4644L14.4221 19.8233C14.6516 20.2433 15.031 20.5488 15.4903 20.6835L15.4941 20.6846C15.7128 20.7482 15.937 20.769 16.1572 20.7489L19.019 25.9666C18.2165 26.1782 17.3664 26.169 16.5443 25.9298ZM20.6561 25.2252L17.8006 20.0189L19.3727 19.1596L22.2201 24.3704L20.6561 25.2252Z" fill="#00678F"/>
<path d="M26.5 12.7C27.8791 12.7 29.2018 12.1521 30.177 11.177C31.1521 10.2018 31.7 8.87913 31.7 7.5C31.7 6.12087 31.1521 4.79823 30.177 3.82304C29.2018 2.84786 27.8791 2.3 26.5 2.3C25.1209 2.3 23.7982 2.84786 22.823 3.82304C21.8479 4.79823 21.3 6.12087 21.3 7.5C21.3 8.87913 21.8479 10.2018 22.823 11.177C23.7982 12.1521 25.1209 12.7 26.5 12.7ZM26.5 1C27.3536 1 28.1988 1.16813 28.9874 1.49478C29.7761 1.82144 30.4926 2.30023 31.0962 2.90381C31.6998 3.50739 32.1786 4.22394 32.5052 5.01256C32.8319 5.80117 33 6.64641 33 7.5C33 9.22391 32.3152 10.8772 31.0962 12.0962C29.8772 13.3152 28.2239 14 26.5 14C22.9055 14 20 11.075 20 7.5C20 5.77609 20.6848 4.12279 21.9038 2.90381C23.1228 1.68482 24.7761 1 26.5 1ZM26.825 4.25V7.6625L29.75 9.398L29.2625 10.1975L25.85 8.15V4.25H26.825Z" fill="#00678F"/>
</svg>
