<svg width="30" height="28" viewBox="0 0 30 28" fill="none" xmlns="http://www.w3.org/2000/svg">
<path d="M23.4912 6.31305H24.0912V5.71305V3.2913L29.0931 8.29323L24.0912 13.2952V10.8734V10.2734H23.4912H18.9308V6.31305H23.4912Z" stroke="#00678F" stroke-width="1.2"/>
<path d="M19.2276 16.734C19.1218 16.5404 18.9436 16.3969 18.732 16.3349C18.7313 16.3347 18.7308 16.3345 18.7302 16.3343C18.5191 16.2729 18.2923 16.2976 18.0993 16.4031L15.0321 18.0795L11.3004 11.2504L14.3677 9.57389C14.7706 9.35368 14.9188 8.84856 14.6985 8.44567L11.2587 2.15076C11.153 1.95722 10.9748 1.81371 10.7631 1.75164C10.7625 1.75145 10.762 1.7513 10.7614 1.75113C10.5502 1.68972 10.3234 1.71443 10.1304 1.81992L7.3929 3.31612C4.5088 4.8924 3.44468 8.52128 5.02064 11.4055L5.02069 11.4055L11.5101 23.2813C12.2708 24.6735 13.5333 25.6877 15.065 26.1368L15.078 26.1406C16.6056 26.5849 18.2108 26.4121 19.5989 25.6534L22.3365 24.1571C22.7394 23.9369 22.8875 23.4318 22.6674 23.0289L19.2276 16.734ZM10.1984 3.67767L12.8408 8.51345L11.3665 9.31922L8.71657 4.48762L10.1984 3.67767ZM15.5423 24.5439C15.5391 24.543 15.536 24.5421 15.5329 24.5412C14.4275 24.217 13.5171 23.4864 12.9693 22.484L6.47995 10.6081C5.5194 8.85032 5.91911 6.70906 7.32153 5.40199L9.97724 10.2441C9.59352 10.7503 9.51738 11.4552 9.84117 12.0477L13.5729 18.8769C13.7858 19.2667 14.1379 19.5502 14.5641 19.6752L14.5677 19.6763C14.7706 19.7353 14.9787 19.7545 15.1831 19.7359L17.8389 24.578C17.0941 24.7745 16.3053 24.7659 15.5423 24.5439ZM19.3581 23.89L16.7082 19.0584L18.1672 18.261L20.8096 23.0968L19.3581 23.89Z" fill="#00678F"/>
</svg>
