<svg width="31" height="30" viewBox="0 0 31 30" fill="none" xmlns="http://www.w3.org/2000/svg">
<path d="M20.839 17.8364C20.7251 17.6279 20.533 17.4732 20.305 17.4063C20.3043 17.4061 20.3037 17.406 20.3031 17.4058C20.0756 17.3396 19.8311 17.3662 19.6232 17.4799L16.3181 19.2863L12.297 11.9275L15.6022 10.121C16.0364 9.88368 16.196 9.33938 15.9587 8.90525L12.2521 2.12211C12.1382 1.91356 11.9461 1.75892 11.7181 1.69203C11.7174 1.69183 11.7168 1.69166 11.7162 1.69148C11.4887 1.62531 11.2442 1.65193 11.0363 1.7656L8.08644 3.37785C4.97864 5.07639 3.83199 8.98672 5.53018 12.0947L5.53024 12.0947L12.5229 24.8916C13.3427 26.3918 14.7031 27.4846 16.3536 27.9685L16.3676 27.9726C18.0137 28.4514 19.7433 28.2651 21.2392 27.4476L24.1891 25.8353C24.6232 25.598 24.7828 25.0537 24.5456 24.6196L20.839 17.8364ZM11.1095 3.76744L13.9569 8.97828L12.3682 9.84655L9.51276 4.64021L11.1095 3.76744ZM16.8679 26.2521C16.8645 26.2511 16.8611 26.2501 16.8577 26.2491C15.6666 25.8998 14.6856 25.1126 14.0953 24.0324L7.10268 11.2354C6.06762 9.34129 6.49834 7.03395 8.00952 5.62551L10.8712 10.8432C10.4577 11.3886 10.3757 12.1482 10.7246 12.7867L14.7457 20.1455C14.9752 20.5656 15.3546 20.871 15.8139 21.0058L15.8177 21.0069C16.0364 21.0705 16.2606 21.0912 16.4809 21.0712L19.3426 26.2888C18.5401 26.5005 17.69 26.4912 16.8679 26.2521ZM20.9797 25.5475L18.1242 20.3411L19.6963 19.4818L22.5437 24.6927L20.9797 25.5475Z" fill="#00678F"/>
<path d="M25.3462 4.45925L26.4424 6.68035L26.582 6.96322L26.8942 7.00857L29.3453 7.36475L27.5717 9.09363L27.3458 9.31381L27.3991 9.62471L27.8178 12.0659L25.6254 10.9133L25.3462 10.7666L25.067 10.9133L22.8747 12.0659L23.2934 9.62471L23.3467 9.31381L23.1208 9.09363L21.3472 7.36475L23.7983 7.00857L24.1105 6.96322L24.2501 6.68035L25.3462 4.45925Z" stroke="#00678F" stroke-width="1.2"/>
</svg>
