<svg width="32" height="30" viewBox="0 0 32 30" fill="none" xmlns="http://www.w3.org/2000/svg">
<path d="M20.0594 17.6308C19.9499 17.4303 19.7652 17.2817 19.546 17.2174C19.5454 17.2172 19.5448 17.217 19.5442 17.2169C19.3255 17.1532 19.0906 17.1788 18.8907 17.2881L15.7136 19.0246L11.8482 11.9507L15.0254 10.2142C15.4428 9.98606 15.5962 9.46285 15.3681 9.04552L11.805 2.52506C11.6955 2.32459 11.5109 2.17594 11.2917 2.11164C11.291 2.11145 11.2905 2.11129 11.2899 2.11111C11.0712 2.0475 10.8362 2.07309 10.6363 2.18236L7.80068 3.73218C4.81324 5.36494 3.711 9.12384 5.34342 12.1114L5.34348 12.1114L12.0654 24.4128C12.8534 25.8549 14.1611 26.9053 15.7477 27.3706L15.7611 27.3745C17.3435 27.8347 19.0062 27.6557 20.4441 26.8698L23.2797 25.3199C23.6971 25.0918 23.8505 24.5686 23.6224 24.1513L20.0594 17.6308ZM10.7067 4.10668L13.4438 9.11573L11.9167 9.95037L9.17178 4.94565L10.7067 4.10668ZM16.2421 25.7206C16.2388 25.7196 16.2356 25.7187 16.2323 25.7178C15.0873 25.382 14.1443 24.6252 13.5768 23.5869L6.85503 11.2855C5.86005 9.46467 6.27409 7.24669 7.72675 5.89279L10.4776 10.9084C10.0802 11.4327 10.0013 12.1629 10.3367 12.7766L14.2021 19.8505C14.4227 20.2543 14.7874 20.5479 15.2289 20.6774L15.2326 20.6785C15.4428 20.7396 15.6583 20.7596 15.87 20.7403L18.621 25.7559C17.8495 25.9594 17.0324 25.9505 16.2421 25.7206ZM20.1946 25.0432L17.4497 20.0385L18.961 19.2125L21.6981 24.2216L20.1946 25.0432Z" fill="#00678F"/>
<rect x="17.7103" y="4.80371" width="2.67263" height="2.67263" fill="#00678F"/>
<rect x="17.7103" y="10.1475" width="2.67263" height="2.67263" fill="#00678F"/>
<rect x="22.2194" y="5.30371" width="8.35422" height="1.67263" fill="#00678F" stroke="#00678F"/>
<rect x="21.7194" y="10.1475" width="9.35422" height="2.67263" fill="#00678F"/>
</svg>
