<svg width="24" height="24" viewBox="0 0 24 24" fill="none" xmlns="http://www.w3.org/2000/svg">
<path d="M1.46002 8.88L2.88002 7.46L5.00002 9.59L7.12002 7.46L8.54002 8.88L6.41002 11L8.54002 13.12L7.12002 14.54L5.00002 12.41L2.88002 14.54L1.46002 13.12L3.59002 11L1.46002 8.88ZM15 4C16.0609 4 17.0783 4.42143 17.8284 5.17157C18.5786 5.92172 19 6.93913 19 8C19 9.06087 18.5786 10.0783 17.8284 10.8284C17.0783 11.5786 16.0609 12 15 12C13.9392 12 12.9217 11.5786 12.1716 10.8284C11.4214 10.0783 11 9.06087 11 8C11 6.93913 11.4214 5.92172 12.1716 5.17157C12.9217 4.42143 13.9392 4 15 4ZM15 5.9C14.4431 5.9 13.9089 6.12125 13.5151 6.51508C13.1213 6.9089 12.9 7.44305 12.9 8C12.9 8.55695 13.1213 9.0911 13.5151 9.48492C13.9089 9.87875 14.4431 10.1 15 10.1C16.16 10.1 17.1 9.16 17.1 8C17.1 6.84 16.16 5.9 15 5.9ZM15 13C17.67 13 23 14.33 23 17V20H7.00002V17C7.00002 14.33 12.33 13 15 13ZM15 14.9C12 14.9 8.90002 16.36 8.90002 17V18.1H21.1V17C21.1 16.36 17.97 14.9 15 14.9Z" fill="#666666"/>
</svg>
