<svg width="17" height="17" viewBox="0 0 17 17" fill="none" xmlns="http://www.w3.org/2000/svg">
<path fill-rule="evenodd" clip-rule="evenodd" d="M10.9079 4.22321L6.02288 9.10666C5.69876 9.39333 5.49825 9.79438 5.466 10.1613V11.8693L7.11718 11.8709C7.54456 11.8406 7.94239 11.6417 8.26183 11.2763L13.1113 6.42677L10.9079 4.22321ZM12.0395 3.09202L14.2427 5.2954L14.9578 4.58029C15.0271 4.51101 15.066 4.41704 15.066 4.31906C15.066 4.22107 15.0271 4.12711 14.9578 4.05782L13.2749 2.37488C13.2064 2.30583 13.1131 2.26699 13.0159 2.26699C12.9186 2.26699 12.8254 2.30583 12.7568 2.37488L12.0395 3.09202ZM16.666 9.46699V15.067C16.666 15.9506 15.9496 16.667 15.066 16.667H2.26601C1.38236 16.667 0.666016 15.9506 0.666016 15.067V2.26699C0.666016 1.38334 1.38236 0.666992 2.26601 0.666992H7.866V2.26699H2.26601V15.067H15.066V9.46699H16.666ZM13.0159 0.666992C13.5397 0.666992 14.0418 0.876128 14.4085 1.24573L16.0892 2.92645C16.4585 3.29579 16.666 3.79673 16.666 4.31906C16.666 4.84138 16.4585 5.34232 16.0892 5.71166L9.432 12.366C8.87321 13.0106 8.08112 13.4066 7.17368 13.4689H3.86601V12.6689L3.86861 10.0968C3.93676 9.25326 4.32894 8.46886 4.9272 7.94173L11.6223 1.24669C11.9911 0.875656 12.4927 0.666992 13.0159 0.666992Z" fill="#666666"/>
</svg>
