<svg width="16" height="16" viewBox="0 0 16 16" fill="none" xmlns="http://www.w3.org/2000/svg">
<path fill-rule="evenodd" clip-rule="evenodd" d="M10.2419 3.55621L5.35687 8.43967C5.03275 8.72634 4.83223 9.12739 4.79999 9.49426V11.2024L6.45117 11.2039C6.87855 11.1736 7.27637 10.9747 7.59581 10.6093L12.4453 5.75978L10.2419 3.55621ZM11.3735 2.42503L13.5767 4.62841L14.2918 3.9133C14.3611 3.84401 14.4 3.75005 14.4 3.65206C14.4 3.55408 14.3611 3.46011 14.2918 3.39083L12.6089 1.70789C12.5404 1.63884 12.4471 1.6 12.3498 1.6C12.2526 1.6 12.1593 1.63884 12.0908 1.70789L11.3735 2.42503ZM16 8.8V14.4C16 15.2837 15.2836 16 14.4 16H1.6C0.716342 16 0 15.2837 0 14.4V1.6C0 0.716344 0.716342 0 1.6 0H7.19998V1.6H1.6V14.4H14.4V8.8H16ZM12.3498 0C12.8736 0 13.3757 0.209136 13.7424 0.578738L15.4232 2.25946C15.7925 2.6288 16 3.12973 16 3.65206C16 4.17439 15.7925 4.67533 15.4232 5.04467L8.76598 11.699C8.2072 12.3436 7.4151 12.7396 6.50766 12.8019H3.19999V12.0019L3.20259 9.42984C3.27074 8.58627 3.66292 7.80187 4.26119 7.27474L10.9563 0.579703C11.3251 0.208664 11.8266 0 12.3498 0Z" fill="#00678F"/>
</svg>
