<svg width="22" height="22" viewBox="0 0 22 22" fill="none" xmlns="http://www.w3.org/2000/svg">
<mask id="mask0" mask-type="alpha" maskUnits="userSpaceOnUse" x="0" y="0" width="22" height="22">
<circle cx="11" cy="11" r="11" fill="#C4C4C4"/>
</mask>
<g mask="url(#mask0)">
<path d="M27.9999 1.21891V20.9061C28.0018 21.037 27.9751 21.1672 27.9214 21.2889C27.7607 21.6737 27.3767 21.9457 26.9257 21.9943C26.8819 21.9989 26.8373 22.0009 26.7929 21.9996H-5.79294C-5.83727 22.0009 -5.8816 21.9989 -5.92566 21.9943C-6.37667 21.9457 -6.76038 21.6737 -6.9214 21.2889C-6.97507 21.1672 -7.00178 21.037 -6.99991 20.9061V1.21891C-7.00178 1.08799 -6.97507 0.957802 -6.9214 0.83608C-6.76038 0.451314 -6.37667 0.179317 -5.92566 0.130676C-5.8816 0.126079 -5.83727 0.124143 -5.79294 0.125353H26.7929C26.8373 0.124143 26.8819 0.126079 26.9257 0.130676C27.3767 0.179317 27.7607 0.451314 27.9214 0.83608C27.9751 0.957802 28.0018 1.08799 27.9999 1.21891Z" fill="#285680"/>
<path d="M27.9999 1.21891C28.0018 1.08799 27.9751 0.957802 27.9214 0.83608C27.7607 0.451314 27.3767 0.179317 26.9257 0.130676C26.8819 0.126079 26.8373 0.124143 26.7929 0.125353H24.8137L14.1206 6.80793V0.125353H6.87938V6.80793L-3.81374 0.125353H-5.79294C-5.83727 0.124143 -5.8816 0.126079 -5.92566 0.130676C-6.37667 0.179317 -6.76038 0.451314 -6.9214 0.83608C-6.97507 0.957802 -7.00178 1.08799 -6.99991 1.21891V2.11573L2.0638 7.78122H-6.99964V14.3438H2.05793L-6.99964 20.0093V20.9061C-7.00178 21.037 -6.97507 21.1672 -6.92114 21.2889C-6.76038 21.6737 -6.37667 21.9457 -5.92566 21.9943C-5.8816 21.9989 -5.83727 22.0009 -5.79268 21.9996H-3.81347L6.87938 15.3171V21.9996H14.1206V15.3171L24.8137 21.9996H26.7929C26.8373 22.0009 26.8816 21.9989 26.9257 21.9943C27.3767 21.9457 27.7604 21.6737 27.9214 21.2889C27.9751 21.1672 28.0018 21.037 27.9999 20.9061V20.0093L18.9362 14.3438H27.9999V7.78122H18.9421L27.9999 2.11573V1.21891Z" fill="#ECF0F1"/>
<path d="M27.9212 21.2889C27.7604 21.6737 27.3764 21.9457 26.9254 21.9943L14.6816 14.3438H16.8179L27.9212 21.2889Z" fill="#C03A2B"/>
<path d="M6.31816 7.78104H4.18194L-6.92133 0.835897C-6.76031 0.451131 -6.37659 0.179133 -5.92558 0.130493L6.31816 7.78104Z" fill="#C03A2B"/>
<path d="M27.9211 0.835897L16.8058 7.78104H14.6874L26.9253 0.130493C27.3763 0.179133 27.7603 0.451131 27.9211 0.835897Z" fill="#C03A2B"/>
<path d="M6.31174 14.3438L-5.92613 21.9943C-6.37714 21.9457 -6.76086 21.6737 -6.92188 21.2889L4.19368 14.3438H6.31174Z" fill="#C03A2B"/>
<path d="M-7 9.96875H27.9996V12.1561H-7V9.96875Z" fill="#C03A2B"/>
<path d="M9.29279 0.125244H11.7067V21.9995H9.29279V0.125244Z" fill="#C03A2B"/>
</g>
</svg>
