<svg width="22" height="22" viewBox="0 0 22 22" fill="none" xmlns="http://www.w3.org/2000/svg">
<mask id="mask0" mask-type="alpha" maskUnits="userSpaceOnUse" x="0" y="0" width="22" height="22">
<circle cx="11" cy="11" r="11" fill="#C4C4C4"/>
</mask>
<g mask="url(#mask0)">
<path d="M-0.599976 14.6666V18.8497C-0.599976 20.6056 0.932922 21.9999 2.80646 21.9999H31.1935C33.067 21.9999 34.5999 20.6056 34.5999 18.8497V14.6666H-0.599976Z" fill="#D32030"/>
<path d="M31.1934 21.9999C33.0669 21.9999 34.5998 20.6056 34.5998 18.8497V14.6666H21.7689L31.1934 21.9999Z" fill="#D32030"/>
<path d="M31.1935 0H2.80646C0.932922 0 -0.599976 1.39436 -0.599976 3.15022V7.33331H34.5999V3.15022C34.5999 1.39436 33.067 0 31.1935 0Z" fill="#D32030"/>
<path d="M31.1935 0H2.80646L12.2309 7.33331H34.5999V3.15022C34.5999 1.39436 33.067 0 31.1935 0Z" fill="#D32030"/>
<path d="M31.1935 0H2.80646L29.0928 7.33331H34.5999V3.15022C34.5999 1.39436 33.067 0 31.1935 0Z" fill="#D32030"/>
<path d="M-0.599976 4.07959V7.22981V7.3331V14.6664V14.7697V17.9199H34.5999V14.7697V14.6664V7.3331V7.22981V4.07959H-0.599976Z" fill="#FFD034"/>
<path d="M12.1742 7.22981L21.8258 14.7697L25.9135 17.9199H34.5999V14.7697V14.6664V7.3331V7.22981V4.07959H8.08649L12.1742 7.22981Z" fill="#FFD034"/>
<path d="M17.5109 4.07959L28.809 7.22981L34.5999 8.83075V7.3331V7.22981V4.07959H17.5109Z" fill="#FFD034"/>
<path d="M34.5999 18.8499C34.5999 20.6057 33.067 22.0001 31.1935 22.0001H2.80646C0.932922 22.0001 -0.599976 20.6057 -0.599976 18.8499" fill="#D32030"/>
<path d="M4.33936 10.7933V12.9623C4.33936 14.0468 5.30451 14.9248 6.49677 14.9248C7.68902 14.9248 8.65418 14.0468 8.65418 12.9623V10.7933H4.33936Z" fill="#D32030"/>
<path d="M9.84645 11.103H9.16516V14.0983H9.84645V11.103Z" fill="#D32030"/>
<path d="M10.1302 14.46C10.0734 14.4083 10.0167 14.4083 9.9031 14.4083C9.84633 14.4083 9.73278 14.4083 9.67601 14.46C9.61923 14.5116 9.56246 14.5116 9.44891 14.5116C9.39214 14.5116 9.27859 14.5116 9.22181 14.46C9.16504 14.46 9.10827 14.4083 8.99472 14.4083C8.88117 14.4083 8.8244 14.4083 8.76762 14.46C8.71085 14.5116 8.65408 14.5116 8.54053 14.5116V14.6149C8.5973 14.6149 8.71085 14.6149 8.76762 14.5633C8.8244 14.5633 8.88117 14.5116 8.99472 14.5116C9.10827 14.5116 9.16504 14.5116 9.22181 14.5633C9.27859 14.6149 9.33536 14.6149 9.44891 14.6149C9.50569 14.6149 9.61923 14.6149 9.67601 14.5633C9.73278 14.5633 9.78956 14.5116 9.9031 14.5116C9.95988 14.5116 10.0734 14.5116 10.1302 14.5633C10.187 14.6149 10.3005 14.6149 10.3573 14.6149V14.5116C10.3005 14.5116 10.187 14.5116 10.1302 14.46Z" fill="#D32030"/>
<path d="M9.95999 14.6666C9.90321 14.6666 9.78967 14.6666 9.73289 14.7183C9.67612 14.7699 9.61934 14.7699 9.5058 14.7699C9.44902 14.7699 9.33547 14.7699 9.2787 14.7183C9.22193 14.7183 9.16515 14.6666 9.0516 14.6666C8.93806 14.6666 8.88128 14.6666 8.82451 14.7183C8.76773 14.7699 8.71096 14.7699 8.59741 14.7699V14.8732C8.65419 14.8732 8.76773 14.8732 8.82451 14.8216C8.88128 14.8216 8.93806 14.7699 9.0516 14.7699C9.16515 14.7699 9.22193 14.7699 9.2787 14.8216C9.33547 14.8732 9.39225 14.8732 9.5058 14.8732C9.56257 14.8732 9.67612 14.8732 9.73289 14.8216C9.78967 14.8216 9.84644 14.7699 9.95999 14.7699C10.0168 14.7699 10.1303 14.7699 10.1871 14.8216C10.2439 14.8732 10.3006 14.8732 10.4142 14.8732V14.7699C10.3574 14.7699 10.2439 14.7699 10.1871 14.7183C10.0735 14.6666 10.0168 14.6666 9.95999 14.6666Z" fill="#D32030"/>
<path d="M9.95999 14.8732C9.90321 14.8732 9.78967 14.8732 9.73289 14.9248C9.67612 14.9765 9.61934 14.9765 9.5058 14.9765C9.44902 14.9765 9.33547 14.9765 9.2787 14.9248C9.22193 14.9248 9.16515 14.8732 9.0516 14.8732C8.93806 14.8732 8.88128 14.8732 8.82451 14.9248C8.76773 14.9765 8.71096 14.9765 8.59741 14.9765V15.0797C8.65419 15.0797 8.76773 15.0797 8.82451 15.0281C8.88128 15.0281 8.93806 14.9765 9.0516 14.9765C9.16515 14.9765 9.22193 14.9765 9.2787 15.0281C9.33547 15.0797 9.39225 15.0797 9.5058 15.0797C9.56257 15.0797 9.67612 15.0797 9.73289 15.0281C9.78967 15.0281 9.84644 14.9765 9.95999 14.9765C10.0168 14.9765 10.1303 14.9765 10.1871 15.0281C10.2439 15.0797 10.3006 15.0797 10.4142 15.0797V14.9765C10.3574 14.9765 10.2439 14.9765 10.1871 14.9248C10.0735 14.9248 10.0168 14.8732 9.95999 14.8732Z" fill="#D32030"/>
<path d="M9.95997 14.1503C9.95997 14.2019 9.9032 14.2536 9.84642 14.2536H9.10836C9.05159 14.2536 8.99481 14.2019 8.99481 14.1503C8.99481 14.0986 9.05159 14.047 9.10836 14.047H9.84642C9.9032 14.047 9.95997 14.0986 9.95997 14.1503Z" fill="#D32030"/>
<path d="M9.95997 11.0518C9.95997 11.1034 9.9032 11.1551 9.84642 11.1551H9.10836C9.05159 11.1551 8.99481 11.1034 8.99481 11.0518C8.99481 11.0001 9.05159 10.9485 9.10836 10.9485H9.84642C9.9032 11.0001 9.95997 11.0001 9.95997 11.0518Z" fill="#D32030"/>
<path d="M3.88521 11.103H3.20392V14.0983H3.88521V11.103Z" fill="#D32030"/>
<path d="M4.16902 14.46C4.11224 14.4083 4.05547 14.4083 3.94192 14.4083C3.88515 14.4083 3.7716 14.4083 3.71483 14.46C3.65805 14.5116 3.60128 14.5116 3.48773 14.5116C3.43096 14.5116 3.31741 14.5116 3.26063 14.46C3.20386 14.46 3.14709 14.4083 3.03354 14.4083C2.97676 14.4083 2.86322 14.4083 2.80644 14.46C2.74967 14.5116 2.69289 14.5116 2.57935 14.5116V14.6149C2.63612 14.6149 2.74967 14.6149 2.80644 14.5633C2.86322 14.5633 2.91999 14.5116 3.03354 14.5116C3.09031 14.5116 3.20386 14.5116 3.26063 14.5633C3.37418 14.6149 3.43096 14.6149 3.5445 14.6149C3.60128 14.6149 3.71483 14.6149 3.7716 14.5633C3.82837 14.5633 3.88515 14.5116 3.9987 14.5116C4.05547 14.5116 4.16902 14.5116 4.22579 14.5633C4.22579 14.6149 4.28257 14.6149 4.39611 14.6149V14.5116C4.28257 14.5116 4.22579 14.5116 4.16902 14.46Z" fill="#D32030"/>
<path d="M3.94192 14.6666C3.88515 14.6666 3.7716 14.6666 3.71483 14.7183C3.65805 14.7699 3.60128 14.7699 3.48773 14.7699C3.43096 14.7699 3.31741 14.7699 3.26063 14.7183C3.20386 14.7183 3.14709 14.6666 3.03354 14.6666C2.97676 14.6666 2.86322 14.6666 2.80644 14.7183C2.74967 14.7699 2.69289 14.7699 2.57935 14.7699V14.8732C2.63612 14.8732 2.74967 14.8732 2.80644 14.8216C2.86322 14.8216 2.91999 14.7699 3.03354 14.7699C3.09031 14.7699 3.20386 14.7699 3.26063 14.8216C3.31741 14.8732 3.37418 14.8732 3.48773 14.8732C3.5445 14.8732 3.65805 14.8732 3.71483 14.8216C3.7716 14.8216 3.82837 14.7699 3.94192 14.7699C3.9987 14.7699 4.11224 14.7699 4.16902 14.8216C4.22579 14.8732 4.28257 14.8732 4.39611 14.8732V14.7699C4.33934 14.7699 4.22579 14.7699 4.16902 14.7183C4.11224 14.6666 4.05547 14.6666 3.94192 14.6666Z" fill="#D32030"/>
<path d="M3.94192 14.8732C3.88515 14.8732 3.7716 14.8732 3.71483 14.9248C3.65805 14.9765 3.60128 14.9765 3.48773 14.9765C3.43096 14.9765 3.31741 14.9765 3.26063 14.9248C3.20386 14.9248 3.14709 14.8732 3.03354 14.8732C2.97676 14.8732 2.86322 14.8732 2.80644 14.9248C2.74967 14.9765 2.69289 14.9765 2.57935 14.9765V15.0797C2.63612 15.0797 2.74967 15.0797 2.80644 15.0281C2.86322 15.0281 2.91999 14.9765 3.03354 14.9765C3.09031 14.9765 3.20386 14.9765 3.26063 15.0281C3.31741 15.0797 3.37418 15.0797 3.48773 15.0797C3.5445 15.0797 3.65805 15.0797 3.71483 15.0281C3.7716 15.0281 3.82837 14.9765 3.94192 14.9765C3.9987 14.9765 4.11224 14.9765 4.16902 15.0281C4.22579 15.0797 4.28257 15.0797 4.39611 15.0797V14.9765C4.33934 14.9765 4.22579 14.9765 4.16902 14.9248C4.11224 14.9248 4.05547 14.8732 3.94192 14.8732Z" fill="#D32030"/>
<path d="M3.99879 14.1503C3.99879 14.2019 3.94201 14.2536 3.88524 14.2536H3.14718C3.0904 14.2536 3.03363 14.2019 3.03363 14.1503C3.03363 14.0986 3.0904 14.047 3.14718 14.047H3.88524C3.94201 14.047 3.99879 14.0986 3.99879 14.1503Z" fill="#D32030"/>
<path d="M3.99879 11.0516C3.99879 11.1033 3.94201 11.1549 3.88524 11.1549H3.14718C3.0904 11.1549 3.03363 11.1033 3.03363 11.0516C3.0904 11 3.14718 11 3.14718 11H3.88524C3.94201 11 3.99879 11 3.99879 11.0516Z" fill="#D32030"/>
<path d="M8.20007 10.3803C8.20007 10.277 8.14329 10.2254 8.02975 10.2254C8.02975 10.1221 7.34846 10.0704 6.49685 10.0704C5.64524 10.0704 4.96395 10.1221 4.96395 10.2254C4.90718 10.2254 4.8504 10.3286 4.8504 10.3803C4.8504 10.4319 4.90718 10.5352 5.02072 10.5352C5.02072 10.6385 5.70201 10.6901 6.55362 10.6901C7.40523 10.6901 8.08652 10.6385 8.08652 10.5352C8.14329 10.5352 8.20007 10.4836 8.20007 10.3803Z" fill="#D32030"/>
<path d="M9.16517 9.03752C9.16517 9.03752 9.1084 9.03752 9.16517 9.03752L9.22194 8.98588C9.27872 8.88259 9.33549 8.77931 9.33549 8.67602C9.33549 8.46945 9.16517 8.26288 8.99485 8.15959L9.05162 8.21123C8.8813 8.10795 8.59743 8.00466 8.31356 8.00466C8.25679 8.00466 8.20001 8.00466 8.08646 8.00466C8.08646 8.00466 8.08646 8.00466 8.02969 8.00466C8.02969 8.00466 7.97292 8.00466 7.97292 8.0563C7.97292 8.0563 7.97292 8.0563 7.91614 8.0563C7.91614 8.0563 7.91614 8.0563 7.91614 8.10795C7.85937 8.0563 7.80259 8.00466 7.74582 7.95302C7.63227 7.84973 7.40518 7.74645 7.17808 7.74645C7.00776 7.74645 6.83744 7.79809 6.66711 7.84973C6.66711 7.90138 6.66711 7.90138 6.66711 7.95302C6.78066 7.90138 6.95098 7.84973 7.12131 7.84973C7.46195 7.84973 7.80259 8.00466 7.80259 8.26288V8.31452C7.80259 8.41781 7.74582 8.46945 7.68905 8.52109C7.51872 8.52109 7.40518 8.46945 7.29163 8.41781C7.12131 8.36616 6.89421 8.31452 6.66711 8.31452C6.66711 8.26288 6.66711 8.21123 6.66711 8.15959C6.66711 8.15959 6.66711 8.15959 6.66711 8.10795C6.66711 8.10795 6.66711 8.10795 6.66711 8.0563C6.66711 7.95302 6.66711 7.90138 6.66711 7.84973C6.66711 7.79809 6.55357 7.74645 6.49679 7.74645C6.61034 7.74645 6.66711 7.6948 6.72389 7.64316C6.72389 7.64316 6.72389 7.59152 6.72389 7.53987C6.72389 7.43659 6.66711 7.38495 6.55357 7.3333V7.17837H6.66711V7.07509H6.55357V6.9718H6.44002V7.07509H6.32647V7.17837H6.44002V7.3333C6.32647 7.3333 6.2697 7.43659 6.2697 7.53987C6.2697 7.59152 6.2697 7.59152 6.2697 7.64316C6.32647 7.6948 6.38324 7.74645 6.44002 7.74645C6.38324 7.74645 6.32647 7.79809 6.32647 7.79809C6.32647 7.79809 6.32647 7.79809 6.32647 7.74645C6.32647 7.6948 6.32647 7.6948 6.2697 7.6948C6.21292 7.6948 6.21292 7.6948 6.21292 7.74645C6.21292 7.79809 6.21292 7.79809 6.2697 7.79809H6.32647L6.2697 7.84973C6.15615 7.79809 5.98583 7.74645 5.75873 7.74645C5.53163 7.74645 5.30454 7.79809 5.19099 7.95302C5.13422 8.00466 5.02067 8.0563 5.02067 8.10795C5.02067 8.10795 5.02067 8.10795 5.02067 8.0563C5.02067 8.0563 5.02067 8.0563 4.96389 8.0563C4.96389 8.0563 4.96389 8.00466 4.90712 8.00466H4.85035C4.79357 8.00466 4.7368 8.00466 4.62325 8.00466C4.33938 8.00466 4.05551 8.10795 3.88519 8.21123L3.94196 8.15959C3.71487 8.26288 3.60132 8.46945 3.60132 8.67602C3.60132 8.77931 3.65809 8.93424 3.71487 8.98588L3.77164 9.03752C3.71487 9.03752 3.65809 9.08916 3.65809 9.19245C3.65809 9.19245 3.77164 9.19245 3.82841 9.24409C3.88519 9.29574 3.94196 9.39902 3.94196 9.39902C3.94196 9.45067 3.94196 9.45067 3.94196 9.50231C3.99874 9.55395 3.99874 9.55395 4.05551 9.50231C4.11228 9.55395 4.16906 9.65724 4.28261 9.70888C4.33938 9.76052 4.45293 9.76052 4.5097 9.76052C4.5097 9.76052 4.5097 9.76052 4.56648 9.76052H4.5097C4.45293 9.76052 4.45293 9.81217 4.45293 9.81217C4.45293 9.86381 4.5097 9.86381 4.5097 9.86381C4.5097 9.86381 4.56648 9.86381 4.62325 9.91545L4.68002 9.9671L4.79357 10.0187C4.79357 10.0704 4.79357 10.122 4.79357 10.122C5.24776 10.0187 5.8155 9.91545 6.49679 9.91545C7.17808 9.91545 7.80259 10.0187 8.20001 10.122C8.14324 10.122 8.14324 10.0704 8.20001 10.0187L8.31356 9.9671L8.25679 9.91545C8.31356 9.86381 8.37033 9.86381 8.37033 9.86381C8.42711 9.86381 8.42711 9.86381 8.42711 9.81217C8.42711 9.76052 8.42711 9.76052 8.37033 9.76052C8.31356 9.76052 8.31356 9.76052 8.25679 9.76052L8.31356 9.81217C8.37033 9.81217 8.48388 9.81217 8.54066 9.76052C8.6542 9.70888 8.71098 9.6056 8.76775 9.55395C8.82453 9.55395 8.82453 9.55395 8.8813 9.55395C8.93807 9.50231 8.93807 9.45067 8.8813 9.45067C8.8813 9.45067 8.93807 9.34738 8.99485 9.29574C9.05162 9.24409 9.16517 9.24409 9.16517 9.24409C9.33549 9.14081 9.22194 9.03752 9.16517 9.03752ZM4.96389 8.15959C4.90712 8.15959 4.90712 8.15959 4.90712 8.21123C4.90712 8.26288 4.90712 8.26288 4.96389 8.26288V8.31452C4.96389 8.31452 4.90712 8.31452 4.90712 8.36616C4.90712 8.41781 4.90712 8.41781 4.96389 8.41781V8.46945C4.96389 8.46945 4.96389 8.46945 4.96389 8.52109C4.90712 8.52109 4.85035 8.52109 4.79357 8.52109C4.62325 8.52109 4.45293 8.57273 4.22583 8.62438C4.11228 8.67602 4.05551 8.72766 3.94196 8.72766C3.88519 8.67602 3.88519 8.62438 3.88519 8.52109C3.88519 8.46945 3.88519 8.41781 3.94196 8.36616C4.05551 8.15959 4.39615 8.0563 4.79357 8.0563C4.90712 8.0563 4.96389 8.0563 5.02067 8.0563C5.02067 8.10795 5.02067 8.10795 4.96389 8.15959ZM6.32647 8.0563C6.32647 8.0563 6.2697 8.10795 6.32647 8.0563C6.32647 8.15959 6.32647 8.21123 6.32647 8.26288C6.0426 8.26288 5.8155 8.31452 5.64518 8.36616C5.53163 8.41781 5.41809 8.41781 5.24776 8.46945C5.19099 8.41781 5.13422 8.31452 5.13422 8.26288V8.21123C5.13422 8.00466 5.41809 7.79809 5.8155 7.79809C5.98583 7.79809 6.15615 7.84973 6.2697 7.90138V7.84973C6.32647 7.90138 6.32647 7.95302 6.32647 8.0563C6.2697 8.0563 6.32647 8.0563 6.32647 8.0563ZM9.22194 8.36616C9.22194 8.31452 9.16517 8.26288 9.1084 8.21123C9.16517 8.26288 9.16517 8.31452 9.22194 8.36616ZM9.05162 8.72766C8.99485 8.67602 8.8813 8.62438 8.76775 8.57273C8.54066 8.46945 8.31356 8.46945 8.20001 8.46945C8.14324 8.46945 8.08646 8.46945 8.08646 8.46945C8.08646 8.46945 8.08646 8.41781 8.02969 8.41781V8.36616C8.08646 8.36616 8.08646 8.36616 8.08646 8.31452C8.08646 8.31452 8.08646 8.26288 8.02969 8.26288V8.21123C8.08646 8.21123 8.08646 8.21123 8.08646 8.15959C8.08646 8.10795 8.08646 8.10795 8.02969 8.10795C8.02969 8.10795 8.02969 8.0563 7.97292 8.0563C8.02969 8.0563 8.14324 8.0563 8.20001 8.0563C8.59743 8.0563 8.93807 8.21123 9.05162 8.36616C9.05162 8.41781 9.1084 8.46945 9.1084 8.52109C9.16517 8.62438 9.1084 8.67602 9.05162 8.72766Z" fill="#D32030"/>
<path d="M9.33558 9.08913C9.36694 9.08913 9.39236 9.066 9.39236 9.03748C9.39236 9.00896 9.36694 8.98584 9.33558 8.98584C9.30423 8.98584 9.27881 9.00896 9.27881 9.03748C9.27881 9.066 9.30423 9.08913 9.33558 9.08913Z" fill="#D32030"/>
<path d="M9.39222 8.93422C9.42358 8.93422 9.449 8.9111 9.449 8.88258C9.449 8.85405 9.42358 8.83093 9.39222 8.83093C9.36087 8.83093 9.33545 8.85405 9.33545 8.88258C9.33545 8.9111 9.36087 8.93422 9.39222 8.93422Z" fill="#D32030"/>
<path d="M9.44911 8.83095C9.48046 8.83095 9.50588 8.80783 9.50588 8.7793C9.50588 8.75078 9.48046 8.72766 9.44911 8.72766C9.41775 8.72766 9.39233 8.75078 9.39233 8.7793C9.39233 8.80783 9.41775 8.83095 9.44911 8.83095Z" fill="#D32030"/>
<path d="M9.44911 8.6244C9.48046 8.6244 9.50588 8.60128 9.50588 8.57276C9.50588 8.54424 9.48046 8.52112 9.44911 8.52112C9.41775 8.52112 9.39233 8.54424 9.39233 8.57276C9.39233 8.60128 9.41775 8.6244 9.44911 8.6244Z" fill="#D32030"/>
<path d="M9.39222 8.46938C9.42358 8.46938 9.449 8.44625 9.449 8.41773C9.449 8.38921 9.42358 8.36609 9.39222 8.36609C9.36087 8.36609 9.33545 8.38921 9.33545 8.41773C9.33545 8.44625 9.36087 8.46938 9.39222 8.46938Z" fill="#D32030"/>
<path d="M9.33558 8.31459C9.39236 8.31459 9.39236 8.31459 9.39236 8.26295C9.39236 8.2113 9.39236 8.2113 9.33558 8.2113C9.27881 8.2113 9.27881 8.2113 9.27881 8.26295C9.27881 8.31459 9.27881 8.31459 9.33558 8.31459Z" fill="#D32030"/>
<path d="M9.16523 8.2112C9.19659 8.2112 9.22201 8.18807 9.22201 8.15955C9.22201 8.13103 9.19659 8.10791 9.16523 8.10791C9.13388 8.10791 9.10846 8.13103 9.10846 8.15955C9.10846 8.18807 9.13388 8.2112 9.16523 8.2112Z" fill="#D32030"/>
<path d="M9.05165 8.10792C9.083 8.10792 9.10842 8.0848 9.10842 8.05628C9.10842 8.02776 9.083 8.00464 9.05165 8.00464C9.02029 8.00464 8.99487 8.02776 8.99487 8.05628C8.99487 8.0848 9.02029 8.10792 9.05165 8.10792Z" fill="#D32030"/>
<path d="M8.88124 8.05617C8.91259 8.05617 8.93801 8.03305 8.93801 8.00452C8.93801 7.976 8.91259 7.95288 8.88124 7.95288C8.84988 7.95288 8.82446 7.976 8.82446 8.00452C8.82446 8.03305 8.84988 8.05617 8.88124 8.05617Z" fill="#D32030"/>
<path d="M8.71101 7.95314C8.74237 7.95314 8.76778 7.93002 8.76778 7.9015C8.76778 7.87298 8.74237 7.84985 8.71101 7.84985C8.67965 7.84985 8.65424 7.87298 8.65424 7.9015C8.65424 7.93002 8.67965 7.95314 8.71101 7.95314Z" fill="#D32030"/>
<path d="M8.48384 7.95314C8.51519 7.95314 8.54061 7.93002 8.54061 7.9015C8.54061 7.87298 8.51519 7.84985 8.48384 7.84985C8.45248 7.84985 8.42706 7.87298 8.42706 7.9015C8.42706 7.93002 8.45248 7.95314 8.48384 7.95314Z" fill="#D32030"/>
<path d="M8.31355 7.95314C8.37032 7.95314 8.37032 7.95314 8.37032 7.9015C8.37032 7.84985 8.31355 7.84985 8.31355 7.84985C8.25677 7.84985 8.25677 7.84985 8.25677 7.9015C8.25677 7.9015 8.25677 7.95314 8.31355 7.95314Z" fill="#D32030"/>
<path d="M8.14332 7.95314C8.17468 7.95314 8.2001 7.93002 8.2001 7.9015C8.2001 7.87298 8.17468 7.84985 8.14332 7.84985C8.11197 7.84985 8.08655 7.87298 8.08655 7.9015C8.08655 7.93002 8.11197 7.95314 8.14332 7.95314Z" fill="#D32030"/>
<path d="M7.97291 7.95314C8.00427 7.95314 8.02969 7.93002 8.02969 7.9015C8.02969 7.87298 8.00427 7.84985 7.97291 7.84985C7.94156 7.84985 7.91614 7.87298 7.91614 7.9015C7.91614 7.93002 7.94156 7.95314 7.97291 7.95314Z" fill="#D32030"/>
<path d="M7.80262 7.84987C7.83398 7.84987 7.8594 7.82675 7.8594 7.79822C7.8594 7.7697 7.83398 7.74658 7.80262 7.74658C7.77127 7.74658 7.74585 7.7697 7.74585 7.79822C7.74585 7.82675 7.77127 7.84987 7.80262 7.84987Z" fill="#D32030"/>
<path d="M7.63234 7.74647C7.66369 7.74647 7.68911 7.72335 7.68911 7.69483C7.68911 7.66631 7.66369 7.64319 7.63234 7.64319C7.60098 7.64319 7.57556 7.66631 7.57556 7.69483C7.57556 7.72335 7.60098 7.74647 7.63234 7.74647Z" fill="#D32030"/>
<path d="M7.46193 7.69484C7.49328 7.69484 7.5187 7.67172 7.5187 7.6432C7.5187 7.61467 7.49328 7.59155 7.46193 7.59155C7.43057 7.59155 7.40515 7.61467 7.40515 7.6432C7.40515 7.67172 7.43057 7.69484 7.46193 7.69484Z" fill="#D32030"/>
<path d="M7.29164 7.69484C7.32299 7.69484 7.34841 7.67172 7.34841 7.6432C7.34841 7.61467 7.32299 7.59155 7.29164 7.59155C7.26028 7.59155 7.23486 7.61467 7.23486 7.6432C7.23486 7.67172 7.26028 7.69484 7.29164 7.69484Z" fill="#D32030"/>
<path d="M7.12141 7.69484C7.15277 7.69484 7.17818 7.67172 7.17818 7.6432C7.17818 7.61467 7.15277 7.59155 7.12141 7.59155C7.09006 7.59155 7.06464 7.61467 7.06464 7.6432C7.06464 7.67172 7.09006 7.69484 7.12141 7.69484Z" fill="#D32030"/>
<path d="M6.89424 7.69484C6.92559 7.69484 6.95101 7.67172 6.95101 7.6432C6.95101 7.61467 6.92559 7.59155 6.89424 7.59155C6.86288 7.59155 6.83746 7.61467 6.83746 7.6432C6.83746 7.67172 6.86288 7.69484 6.89424 7.69484Z" fill="#D32030"/>
<path d="M6.72395 7.74647C6.7553 7.74647 6.78072 7.72335 6.78072 7.69483C6.78072 7.66631 6.7553 7.64319 6.72395 7.64319C6.69259 7.64319 6.66718 7.66631 6.66718 7.69483C6.66718 7.72335 6.69259 7.74647 6.72395 7.74647Z" fill="#D32030"/>
<path d="M3.71485 9.08913C3.74621 9.08913 3.77163 9.066 3.77163 9.03748C3.77163 9.00896 3.74621 8.98584 3.71485 8.98584C3.6835 8.98584 3.65808 9.00896 3.65808 9.03748C3.65808 9.066 3.6835 9.08913 3.71485 9.08913Z" fill="#D32030"/>
<path d="M3.65809 8.93422C3.68945 8.93422 3.71487 8.9111 3.71487 8.88258C3.71487 8.85405 3.68945 8.83093 3.65809 8.83093C3.62674 8.83093 3.60132 8.85405 3.60132 8.88258C3.60132 8.9111 3.62674 8.93422 3.65809 8.93422Z" fill="#D32030"/>
<path d="M3.60133 8.83095C3.63269 8.83095 3.6581 8.80783 3.6581 8.7793C3.6581 8.75078 3.63269 8.72766 3.60133 8.72766C3.56997 8.72766 3.54456 8.75078 3.54456 8.7793C3.54456 8.80783 3.56997 8.83095 3.60133 8.83095Z" fill="#D32030"/>
<path d="M3.60133 8.6244C3.63269 8.6244 3.6581 8.60128 3.6581 8.57276C3.6581 8.54424 3.63269 8.52112 3.60133 8.52112C3.56997 8.52112 3.54456 8.54424 3.54456 8.57276C3.54456 8.60128 3.56997 8.6244 3.60133 8.6244Z" fill="#D32030"/>
<path d="M3.65809 8.46938C3.68945 8.46938 3.71487 8.44625 3.71487 8.41773C3.71487 8.38921 3.68945 8.36609 3.65809 8.36609C3.62674 8.36609 3.60132 8.38921 3.60132 8.41773C3.60132 8.44625 3.62674 8.46938 3.65809 8.46938Z" fill="#D32030"/>
<path d="M3.71485 8.31459C3.74621 8.31459 3.77163 8.29147 3.77163 8.26295C3.77163 8.23443 3.74621 8.2113 3.71485 8.2113C3.6835 8.2113 3.65808 8.23443 3.65808 8.26295C3.65808 8.29147 3.6835 8.31459 3.71485 8.31459Z" fill="#D32030"/>
<path d="M3.82838 8.2112C3.85974 8.2112 3.88515 8.18807 3.88515 8.15955C3.88515 8.13103 3.85974 8.10791 3.82838 8.10791C3.79703 8.10791 3.77161 8.13103 3.77161 8.15955C3.77161 8.18807 3.79703 8.2112 3.82838 8.2112Z" fill="#D32030"/>
<path d="M3.99879 8.10792C4.03015 8.10792 4.05556 8.0848 4.05556 8.05628C4.05556 8.02776 4.03015 8.00464 3.99879 8.00464C3.96744 8.00464 3.94202 8.02776 3.94202 8.05628C3.94202 8.0848 3.96744 8.10792 3.99879 8.10792Z" fill="#D32030"/>
<path d="M4.16908 8.05617C4.20043 8.05617 4.22585 8.03305 4.22585 8.00452C4.22585 7.976 4.20043 7.95288 4.16908 7.95288C4.13772 7.95288 4.1123 7.976 4.1123 8.00452C4.1123 8.03305 4.13772 8.05617 4.16908 8.05617Z" fill="#D32030"/>
<path d="M4.33943 7.95314C4.37078 7.95314 4.3962 7.93002 4.3962 7.9015C4.3962 7.87298 4.37078 7.84985 4.33943 7.84985C4.30807 7.84985 4.28265 7.87298 4.28265 7.9015C4.28265 7.93002 4.30807 7.95314 4.33943 7.95314Z" fill="#D32030"/>
<path d="M4.56654 7.95314C4.5979 7.95314 4.62331 7.93002 4.62331 7.9015C4.62331 7.87298 4.5979 7.84985 4.56654 7.84985C4.53518 7.84985 4.50977 7.87298 4.50977 7.9015C4.50977 7.93002 4.53518 7.95314 4.56654 7.95314Z" fill="#D32030"/>
<path d="M4.73677 7.95314C4.76812 7.95314 4.79354 7.93002 4.79354 7.9015C4.79354 7.87298 4.76812 7.84985 4.73677 7.84985C4.70541 7.84985 4.67999 7.87298 4.67999 7.9015C4.67999 7.93002 4.70541 7.95314 4.73677 7.95314Z" fill="#D32030"/>
<path d="M4.90718 7.95314C4.93853 7.95314 4.96395 7.93002 4.96395 7.9015C4.96395 7.87298 4.93853 7.84985 4.90718 7.84985C4.87582 7.84985 4.8504 7.87298 4.8504 7.9015C4.8504 7.93002 4.87582 7.95314 4.90718 7.95314Z" fill="#D32030"/>
<path d="M5.07747 7.95314C5.10882 7.95314 5.13424 7.93002 5.13424 7.9015C5.13424 7.87298 5.10882 7.84985 5.07747 7.84985C5.04611 7.84985 5.02069 7.87298 5.02069 7.9015C5.02069 7.93002 5.04611 7.95314 5.07747 7.95314Z" fill="#D32030"/>
<path d="M5.24769 7.84987C5.27905 7.84987 5.30447 7.82675 5.30447 7.79822C5.30447 7.7697 5.27905 7.74658 5.24769 7.74658C5.21634 7.74658 5.19092 7.7697 5.19092 7.79822C5.19092 7.82675 5.21634 7.84987 5.24769 7.84987Z" fill="#D32030"/>
<path d="M5.4181 7.74647C5.44946 7.74647 5.47488 7.72335 5.47488 7.69483C5.47488 7.66631 5.44946 7.64319 5.4181 7.64319C5.38675 7.64319 5.36133 7.66631 5.36133 7.69483C5.36133 7.72335 5.38675 7.74647 5.4181 7.74647Z" fill="#D32030"/>
<path d="M5.58845 7.69484C5.61981 7.69484 5.64523 7.67172 5.64523 7.6432C5.64523 7.61467 5.61981 7.59155 5.58845 7.59155C5.5571 7.59155 5.53168 7.61467 5.53168 7.6432C5.53168 7.67172 5.5571 7.69484 5.58845 7.69484Z" fill="#D32030"/>
<path d="M5.75874 7.69484C5.79009 7.69484 5.81551 7.67172 5.81551 7.6432C5.81551 7.61467 5.79009 7.59155 5.75874 7.59155C5.72738 7.59155 5.70197 7.61467 5.70197 7.6432C5.70197 7.67172 5.72738 7.69484 5.75874 7.69484Z" fill="#D32030"/>
<path d="M5.92909 7.69484C5.96044 7.69484 5.98586 7.67172 5.98586 7.6432C5.98586 7.61467 5.96044 7.59155 5.92909 7.59155C5.89773 7.59155 5.87231 7.61467 5.87231 7.6432C5.87231 7.67172 5.89773 7.69484 5.92909 7.69484Z" fill="#D32030"/>
<path d="M6.1562 7.69484C6.18756 7.69484 6.21297 7.67172 6.21297 7.6432C6.21297 7.61467 6.18756 7.59155 6.1562 7.59155C6.12484 7.59155 6.09943 7.61467 6.09943 7.6432C6.09943 7.67172 6.12484 7.69484 6.1562 7.69484Z" fill="#D32030"/>
<path d="M3.94193 10.9485C3.94193 10.8969 3.94193 10.8969 3.94193 10.9485C3.88516 10.8969 3.71483 10.8969 3.54451 10.8969C3.31742 10.8969 3.14709 10.8969 3.14709 10.9485C3.14709 10.9485 3.14709 10.9485 3.14709 11.0001C3.14709 11.0001 3.14709 11.0518 3.20387 11.0518C3.20387 11.0518 3.37419 11.1034 3.60129 11.1034C3.82838 11.1034 3.88516 11.0001 3.94193 10.9485Z" fill="#D32030"/>
<path d="M4.16903 10.5866C4.22581 10.535 4.22581 10.535 4.22581 10.4834C4.22581 10.4317 4.16903 10.3801 4.11226 10.3801C4.05549 10.3284 3.99871 10.3284 3.94194 10.3284H3.88516C3.88516 10.3284 3.88516 10.2768 3.82839 10.2768C3.77162 10.2251 3.77162 10.2251 3.65807 10.2251C3.60129 10.2251 3.54452 10.2251 3.54452 10.2768C3.60129 10.2768 3.60129 10.2251 3.65807 10.2251C3.77162 10.2251 3.82839 10.2768 3.82839 10.3284V10.3801C3.77162 10.3801 3.77162 10.3801 3.71484 10.3801C3.65807 10.3801 3.60129 10.3801 3.54452 10.3284C3.54452 10.3284 3.54452 10.3284 3.54452 10.2768V10.2251C3.54452 10.2251 3.54452 10.1735 3.48775 10.1735C3.48775 10.1735 3.54452 10.1735 3.54452 10.1219C3.54452 10.1219 3.54452 10.0702 3.48775 10.0702V10.0186H3.54452V9.96693V9.91528V9.96693H3.48775V10.0186H3.54452V10.0702C3.54452 10.0702 3.48775 10.0702 3.48775 10.1219C3.48775 10.1219 3.48775 10.1735 3.54452 10.1735C3.54452 10.1735 3.54452 10.1735 3.48775 10.1735C3.43097 10.1735 3.43097 10.1219 3.3742 10.1219C3.31742 10.1219 3.26065 10.1219 3.20388 10.1735C3.20388 10.1735 3.1471 10.1735 3.1471 10.2251H3.09033C3.03355 10.2251 2.97678 10.2251 2.92001 10.2768C2.86323 10.3284 2.80646 10.3284 2.80646 10.3801C2.80646 10.4317 2.80646 10.4317 2.86323 10.4834C2.86323 10.4834 2.80646 10.4834 2.80646 10.535H2.86323L2.92001 10.5866C2.92001 10.5866 2.92001 10.5866 2.92001 10.6383C2.92001 10.6383 2.92001 10.6899 2.97678 10.6899H3.03355C3.03355 10.6899 3.03355 10.6899 3.03355 10.7416C3.1471 10.6899 3.26065 10.6899 3.43097 10.6899C3.60129 10.6899 3.77162 10.6899 3.82839 10.7416C3.82839 10.7416 3.82839 10.7416 3.82839 10.6899H3.88516L3.94194 10.6383C3.94194 10.6383 3.94194 10.6383 3.94194 10.5866C4.11226 10.6899 4.16903 10.6383 4.16903 10.5866C4.16903 10.6383 4.22581 10.6383 4.16903 10.5866C4.22581 10.6383 4.16903 10.5866 4.16903 10.5866ZM3.1471 10.3801C3.1471 10.3801 3.1471 10.4317 3.1471 10.3801C3.1471 10.4317 3.1471 10.4317 3.1471 10.3801C3.1471 10.4317 3.1471 10.4317 3.1471 10.3801C3.1471 10.4317 3.1471 10.4317 3.1471 10.4317C3.1471 10.4317 3.1471 10.4317 3.09033 10.4317C3.03355 10.4317 2.97678 10.4317 2.97678 10.4834C2.97678 10.4834 2.92001 10.4834 2.92001 10.535V10.4834V10.4317C2.92001 10.3801 3.03355 10.3284 3.1471 10.3284C3.1471 10.3801 3.1471 10.3801 3.1471 10.3801ZM3.48775 10.3801C3.43097 10.4317 3.3742 10.4317 3.31742 10.4317C3.31742 10.4317 3.26065 10.4317 3.20388 10.4317V10.3801C3.20388 10.3284 3.26065 10.2768 3.3742 10.2768C3.43097 10.3284 3.43097 10.3284 3.48775 10.3801C3.48775 10.3284 3.48775 10.3284 3.48775 10.3801C3.48775 10.3284 3.48775 10.3284 3.48775 10.3801ZM4.16903 10.535C4.16903 10.535 4.11226 10.535 4.11226 10.4834C4.05549 10.4834 3.99871 10.4834 3.94194 10.4834C3.94194 10.4834 3.94194 10.4834 3.88516 10.4834H3.94194C4.05549 10.4834 4.11226 10.535 4.16903 10.5866C4.16903 10.4317 4.16903 10.4834 4.16903 10.535C4.16903 10.4834 4.16903 10.535 4.16903 10.535Z" fill="#D32030"/>
<path d="M9.90317 10.9485C9.90317 10.8969 9.90317 10.8969 9.90317 10.9485C9.8464 10.8969 9.67608 10.8969 9.50575 10.8969C9.27866 10.8969 9.10834 10.8969 9.10834 10.9485C9.10834 10.9485 9.10834 10.9485 9.10834 11.0001C9.10834 11.0001 9.10834 11.0518 9.16511 11.0518C9.16511 11.0518 9.33543 11.1034 9.56253 11.1034C9.73285 11.0001 9.90317 11.0001 9.90317 10.9485Z" fill="#D32030"/>
<path d="M10.1303 10.5866C10.1871 10.5866 10.1871 10.535 10.1871 10.4834C10.1871 10.4317 10.1303 10.3801 10.0735 10.3801C10.0168 10.3284 9.95998 10.3284 9.9032 10.3284H9.84643C9.84643 10.3284 9.84643 10.2768 9.78965 10.2768C9.73288 10.2251 9.73288 10.2251 9.61933 10.2251C9.56256 10.2251 9.50578 10.2251 9.50578 10.2768C9.56256 10.2768 9.56256 10.2251 9.61933 10.2251C9.73288 10.2251 9.78965 10.2768 9.78965 10.3284V10.3801C9.73288 10.3801 9.73288 10.3801 9.67611 10.3801C9.61933 10.3801 9.56256 10.3801 9.50578 10.3284C9.50578 10.3284 9.50578 10.3284 9.50578 10.2768V10.2251C9.50578 10.2251 9.50579 10.1735 9.44901 10.1735C9.44901 10.1735 9.50578 10.1735 9.50578 10.1219C9.50578 10.1219 9.50579 10.0702 9.44901 10.0702V10.0186H9.50578V9.96693H9.44901V9.91528H9.39224V9.96693H9.33546V10.0186H9.39224V10.0702C9.39224 10.0702 9.33546 10.0702 9.33546 10.1219C9.33546 10.1219 9.33546 10.1735 9.39224 10.1735C9.39224 10.1735 9.39224 10.1735 9.33546 10.1735C9.27869 10.1735 9.27869 10.1219 9.22191 10.1219C9.16514 10.1219 9.10837 10.1219 9.05159 10.1735C9.05159 10.1735 8.99482 10.1735 8.99482 10.2251H8.93804C8.88127 10.2251 8.8245 10.2251 8.76772 10.2768C8.71095 10.3284 8.65417 10.3284 8.65417 10.3801C8.65417 10.4317 8.65418 10.4317 8.71095 10.4834C8.71095 10.4834 8.65417 10.4834 8.65417 10.535C8.65417 10.535 8.65418 10.535 8.71095 10.535L8.76772 10.5866C8.76772 10.5866 8.76772 10.5866 8.76772 10.6383C8.76772 10.6383 8.76772 10.6899 8.8245 10.6899H8.88127C8.88127 10.6899 8.88127 10.6899 8.88127 10.7416C8.99482 10.6899 9.10837 10.6899 9.27869 10.6899C9.44901 10.6899 9.61933 10.6899 9.67611 10.7416C9.67611 10.7416 9.67611 10.7416 9.67611 10.6899H9.73288L9.78965 10.6383C9.78965 10.6383 9.78965 10.6383 9.78965 10.5866C10.1303 10.6899 10.1303 10.6383 10.1303 10.5866C10.1303 10.6383 10.1871 10.6383 10.1303 10.5866C10.1871 10.6383 10.1871 10.5866 10.1303 10.5866ZM9.16514 10.3801C9.10837 10.3801 9.10837 10.3801 9.16514 10.3801C9.10837 10.3801 9.10837 10.4317 9.16514 10.3801C9.10837 10.4317 9.10837 10.4317 9.16514 10.3801C9.10837 10.4317 9.10837 10.4317 9.16514 10.3801C9.16514 10.4317 9.16514 10.4317 9.16514 10.4317C9.16514 10.4317 9.16514 10.4317 9.10837 10.4317C9.05159 10.4317 8.99482 10.4317 8.99482 10.4834C8.99482 10.4834 8.93804 10.4834 8.93804 10.535V10.4834V10.4317C8.93804 10.3801 9.05159 10.3284 9.16514 10.3284C9.10837 10.3801 9.10837 10.3801 9.16514 10.3801ZM9.44901 10.3801C9.39224 10.4317 9.33546 10.4317 9.27869 10.4317C9.27869 10.4317 9.22192 10.4317 9.16514 10.4317V10.3801C9.16514 10.3284 9.22192 10.2768 9.33546 10.2768C9.39224 10.3284 9.44901 10.3284 9.44901 10.3801C9.44901 10.3284 9.44901 10.3284 9.44901 10.3801C9.44901 10.3284 9.44901 10.3284 9.44901 10.3801ZM10.1871 10.4317C10.1303 10.4317 10.1303 10.4317 10.1871 10.4317C10.1303 10.4317 10.1303 10.4317 10.1871 10.4317ZM10.1303 10.535C10.1303 10.535 10.0735 10.535 10.0735 10.4834C10.0168 10.4834 9.95998 10.4317 9.95998 10.4317C9.95998 10.4317 9.95998 10.4317 9.9032 10.4317H9.95998C10.0735 10.4317 10.1303 10.4834 10.1871 10.535C10.1303 10.4317 10.1303 10.4834 10.1303 10.535C10.1303 10.4834 10.1303 10.535 10.1303 10.535Z" fill="#D32030"/>
<path d="M6.49679 9.91558V6.92029H6.44002V7.02357H6.32647V7.12686H6.44002V7.28179C6.32647 7.28179 6.2697 7.38508 6.2697 7.48836C6.2697 7.54 6.2697 7.54 6.2697 7.59165C6.32647 7.64329 6.38324 7.69493 6.44002 7.69493C6.38324 7.69493 6.32647 7.74658 6.32647 7.74658C6.32647 7.74658 6.32647 7.74658 6.32647 7.69493C6.32647 7.64329 6.32647 7.64329 6.2697 7.64329C6.21292 7.64329 6.21292 7.64329 6.21292 7.69493C6.21292 7.74658 6.21292 7.74658 6.2697 7.74658H6.32647L6.2697 7.79822C6.15615 7.74658 5.98583 7.69493 5.75873 7.69493C5.53163 7.69493 5.30454 7.74658 5.19099 7.9015C5.13422 7.95315 5.02067 8.00479 5.02067 8.05643C5.02067 8.05643 5.02067 8.05643 5.02067 8.00479C5.02067 8.00479 5.02067 8.00479 4.96389 8.00479C4.96389 8.00479 4.96389 7.95315 4.90712 7.95315H4.85035C4.79357 7.95315 4.7368 7.95315 4.62325 7.95315C4.33938 7.95315 4.05551 8.05643 3.88519 8.15972L3.94196 8.10808C3.71487 8.21136 3.60132 8.41793 3.60132 8.62451C3.60132 8.72779 3.65809 8.88272 3.71487 8.93437L3.77164 8.98601C3.71487 8.98601 3.65809 9.03765 3.65809 9.14094C3.65809 9.14094 3.77164 9.14094 3.82841 9.19258C3.88519 9.24422 3.94196 9.34751 3.94196 9.34751C3.94196 9.39915 3.94196 9.39915 3.94196 9.45079C3.99874 9.50244 3.99874 9.50244 4.05551 9.45079C4.11228 9.50244 4.16906 9.60572 4.28261 9.65737C4.33938 9.70901 4.45293 9.70901 4.5097 9.70901C4.5097 9.70901 4.5097 9.70901 4.56648 9.70901H4.5097C4.45293 9.70901 4.45293 9.76065 4.45293 9.76065C4.45293 9.8123 4.5097 9.8123 4.5097 9.8123C4.5097 9.8123 4.56648 9.8123 4.62325 9.86394L4.68002 9.96723L4.79357 10.0189C4.79357 10.0705 4.79357 10.1222 4.79357 10.1222C5.24776 9.96722 5.87228 9.91558 6.49679 9.91558ZM5.13422 8.21136C5.13422 8.00479 5.41809 7.79822 5.8155 7.79822C5.98583 7.79822 6.15615 7.84986 6.2697 7.9015V7.84986C6.2697 7.9015 6.2697 7.95315 6.2697 8.00479C6.2697 8.00479 6.2697 8.00479 6.2697 8.05643C6.2697 8.05643 6.2697 8.05643 6.2697 8.10808C6.2697 8.15972 6.2697 8.21136 6.2697 8.26301C5.98583 8.26301 5.75873 8.31465 5.58841 8.36629C5.47486 8.41793 5.36131 8.41794 5.19099 8.46958C5.19099 8.41794 5.13422 8.31465 5.13422 8.21136ZM4.79357 8.46958C4.62325 8.46958 4.45293 8.52122 4.22583 8.57286C4.11228 8.62451 4.05551 8.67615 3.94196 8.67615C3.88519 8.62451 3.88519 8.57286 3.88519 8.46958C3.88519 8.41794 3.88519 8.36629 3.94196 8.31465C4.05551 8.10808 4.39615 8.00479 4.79357 8.00479C4.90712 8.00479 4.96389 8.00479 5.02067 8.00479C5.02067 8.00479 5.02067 8.05643 4.96389 8.05643C4.90712 8.05643 4.90712 8.05643 4.90712 8.10808C4.90712 8.15972 4.90712 8.15972 4.96389 8.15972V8.21136C4.96389 8.21136 4.90712 8.21136 4.90712 8.26301C4.90712 8.31465 4.90712 8.31465 4.96389 8.31465V8.36629C4.96389 8.36629 4.96389 8.36629 4.96389 8.41793C4.90712 8.46958 4.85035 8.46958 4.79357 8.46958Z" fill="#D32030"/>
<path d="M6.4968 10.0704C5.58842 10.0704 4.90713 10.1221 4.90713 10.2254C4.85035 10.2254 4.79358 10.3286 4.79358 10.3803C4.79358 10.4319 4.85035 10.5352 4.9639 10.5352C4.9639 10.6385 5.64519 10.6901 6.4968 10.6901V10.0704Z" fill="#D32030"/>
<path d="M6.49683 10.7933H4.33942V12.9623C4.33942 14.0468 5.30457 14.9248 6.49683 14.9248V10.7933Z" fill="#D32030"/>
</g>
</svg>
