<svg width="25" height="14" viewBox="0 0 25 14" fill="none" xmlns="http://www.w3.org/2000/svg">
<path d="M12.8449 0C11.918 0 11.0291 0.368749 10.3738 1.02513C9.71841 1.6815 9.35023 2.57174 9.35023 3.5C9.35023 4.42826 9.71841 5.3185 10.3738 5.97487C11.0291 6.63125 11.918 7 12.8449 7C13.7717 7 14.6606 6.63125 15.3159 5.97487C15.9713 5.3185 16.3395 4.42826 16.3395 3.5C16.3395 2.57174 15.9713 1.6815 15.3159 1.02513C14.6606 0.368749 13.7717 0 12.8449 0ZM12.8449 2C13.2421 2 13.623 2.15804 13.9039 2.43934C14.1848 2.72064 14.3425 3.10218 14.3425 3.5C14.3425 3.89782 14.1848 4.27936 13.9039 4.56066C13.623 4.84196 13.2421 5 12.8449 5C12.4476 5 12.0667 4.84196 11.7858 4.56066C11.5049 4.27936 11.3472 3.89782 11.3472 3.5C11.3472 3.10218 11.5049 2.72064 11.7858 2.43934C12.0667 2.15804 12.4476 2 12.8449 2ZM6.35484 3C5.69281 3 5.0579 3.26339 4.58978 3.73223C4.12166 4.20107 3.85867 4.83696 3.85867 5.5C3.85867 6.44 4.38786 7.25 5.14669 7.68C5.50614 7.88 5.91551 8 6.35484 8C6.79416 8 7.20353 7.88 7.56298 7.68C7.93241 7.47 8.24193 7.17 8.47158 6.81C7.7427 5.86 7.3533 4.7 7.3533 3.5C7.3533 3.41 7.3533 3.31 7.3533 3.22C7.05376 3.08 6.71428 3 6.35484 3ZM19.3349 3C18.9754 3 18.6359 3.08 18.3364 3.22C18.3364 3.31 18.3364 3.41 18.3364 3.5C18.3364 4.7 17.947 5.86 17.2181 6.81C17.3379 7 17.4677 7.15 17.6175 7.3C17.7773 7.45 17.937 7.58 18.1267 7.68C18.4862 7.88 18.8955 8 19.3349 8C19.7742 8 20.1836 7.88 20.543 7.68C21.3018 7.25 21.831 6.44 21.831 5.5C21.831 4.83696 21.568 4.20107 21.0999 3.73223C20.6318 3.26339 19.9969 3 19.3349 3ZM12.8449 9C10.5084 9 5.8556 10.17 5.8556 12.5V14H19.8341V12.5C19.8341 10.17 15.1813 9 12.8449 9ZM5.56605 9.55C3.63901 9.78 0.863281 10.76 0.863281 12.5V14H3.85867V12.07C3.85867 11.06 4.54761 10.22 5.56605 9.55ZM20.1237 9.55C21.1421 10.22 21.831 11.06 21.831 12.07V14H24.8264V12.5C24.8264 10.76 22.0507 9.78 20.1237 9.55ZM12.8449 11C14.3725 11 16.0799 11.5 17.0684 12H8.62135C9.60983 11.5 11.3172 11 12.8449 11Z" fill="#666666"/>
</svg>
