<svg width="17" height="14" viewBox="0 0 17 14" fill="none" xmlns="http://www.w3.org/2000/svg">
<path d="M4.47368 7.875V6.125H17V7.875H4.47368ZM4.47368 13.125V11.375H17V13.125H4.47368ZM4.47368 2.625V0.875H17V2.625H4.47368ZM0.894737 3.5V0.875H0V0H1.78947V3.5H0.894737ZM0 11.375V10.5H2.68421V14H0V13.125H1.78947V12.6875H0.894737V11.8125H1.78947V11.375H0ZM2.01316 5.25C2.19113 5.25 2.36182 5.31914 2.48766 5.44221C2.61351 5.56528 2.68421 5.7322 2.68421 5.90625C2.68421 6.08125 2.61263 6.2475 2.49632 6.36125L1.00211 7.875H2.68421V8.75H0V7.945L1.78947 6.125H0V5.25H2.01316Z" fill="#666666"/>
</svg>
