<svg width="21" height="18" viewBox="0 0 21 18" fill="none" xmlns="http://www.w3.org/2000/svg">
<path d="M13.1995 10.6308C13.1262 10.5042 13.0026 10.4103 12.8559 10.3697C12.8554 10.3696 12.8551 10.3695 12.8547 10.3694C12.7083 10.3292 12.551 10.3454 12.4172 10.4144L10.2908 11.5109L7.70359 7.04417L9.83018 5.94765C10.1095 5.80362 10.2122 5.47325 10.0595 5.20973L7.67473 1.09247C7.60142 0.965889 7.47785 0.872025 7.33113 0.831424C7.33068 0.831302 7.33031 0.831201 7.32991 0.83109C7.18353 0.790924 7.02627 0.807085 6.89247 0.876081L4.99456 1.85469C2.99502 2.88568 2.25728 5.25919 3.34988 7.14566L3.34992 7.14567L7.84898 14.9132C8.3764 15.8238 9.25171 16.4871 10.3136 16.7808L10.3226 16.7833C11.3817 17.0739 12.4945 16.9609 13.4569 16.4646L15.3549 15.486C15.6342 15.342 15.7369 15.0116 15.5843 14.7481L13.1995 10.6308ZM6.93957 2.09116L8.77159 5.25406L7.74944 5.78108L5.91225 2.62092L6.93957 2.09116ZM10.6445 15.739C10.6423 15.7384 10.6401 15.7378 10.638 15.7372C9.87159 15.5252 9.24041 15.0473 8.86063 14.3917L4.36162 6.62412C3.69567 5.4744 3.97279 4.07388 4.94508 3.21898L6.78627 6.38602C6.52024 6.71707 6.46745 7.17815 6.69194 7.56569L9.27911 12.0324C9.42674 12.2874 9.67084 12.4728 9.96635 12.5545L9.96882 12.5552C10.1095 12.5938 10.2538 12.6064 10.3955 12.5943L12.2367 15.7613C11.7204 15.8898 11.1735 15.8841 10.6445 15.739ZM13.29 15.3113L11.4528 12.1511L12.4643 11.6296L14.2963 14.7924L13.29 15.3113Z" fill="#666666"/>
<rect x="11.6272" y="2.53125" width="1.78883" height="1.6876" fill="#666666"/>
<rect x="11.6272" y="5.90625" width="1.78883" height="1.6876" fill="#666666"/>
<rect x="14.7324" y="2.95315" width="5.41711" height="0.8438" fill="#666666" stroke="#666666" stroke-width="0.8438"/>
<rect x="14.3105" y="5.90625" width="6.26091" height="1.6876" fill="#666666"/>
</svg>
