<svg width="19" height="13" viewBox="0 0 19 13" fill="none" xmlns="http://www.w3.org/2000/svg">
<path d="M13.775 9.75C15.409 9.75 17.3375 10.4929 17.575 10.9386V11.6071H9.975V10.9386C10.2125 10.4929 12.141 9.75 13.775 9.75ZM13.775 8.35714C12.0365 8.35714 8.55 9.21143 8.55 10.9107V13H19V10.9107C19 9.21143 15.5135 8.35714 13.775 8.35714ZM6.65 7.42857C4.4365 7.42857 0 8.515 0 10.6786V13H6.65V11.6071H1.425V10.6786C1.425 10.0936 4.0755 8.67286 7.429 8.82143C7.83739 8.34406 8.33768 7.9497 8.9015 7.66071C8.16047 7.51217 7.40642 7.43442 6.65 7.42857ZM6.65 1.39286C6.93184 1.39286 7.20735 1.47455 7.44169 1.6276C7.67603 1.78065 7.85867 1.99818 7.96653 2.25269C8.07438 2.5072 8.1026 2.78726 8.04762 3.05745C7.99264 3.32764 7.85692 3.57582 7.65763 3.77061C7.45834 3.96541 7.20443 4.09806 6.928 4.15181C6.65158 4.20555 6.36506 4.17797 6.10468 4.07255C5.84429 3.96712 5.62174 3.7886 5.46516 3.55954C5.30857 3.33049 5.225 3.0612 5.225 2.78571C5.225 2.41631 5.37513 2.06203 5.64237 1.80082C5.90961 1.5396 6.27207 1.39286 6.65 1.39286ZM6.65 0C6.08632 0 5.5353 0.16338 5.06662 0.469478C4.59794 0.775576 4.23265 1.21064 4.01694 1.71967C3.80123 2.22869 3.74479 2.7888 3.85476 3.32918C3.96473 3.86956 4.23617 4.36592 4.63475 4.75551C5.03333 5.1451 5.54115 5.41041 6.09399 5.5179C6.64684 5.62539 7.21988 5.57022 7.74065 5.35938C8.26142 5.14853 8.70653 4.79148 9.01969 4.33337C9.33285 3.87527 9.5 3.33668 9.5 2.78571C9.5 2.0469 9.19973 1.33834 8.66525 0.815917C8.13078 0.293494 7.40587 0 6.65 0ZM13.775 3.25C13.9629 3.25 14.1466 3.30446 14.3028 3.40649C14.459 3.50853 14.5808 3.65355 14.6527 3.82322C14.7246 3.9929 14.7434 4.1796 14.7067 4.35973C14.6701 4.53985 14.5796 4.70531 14.4468 4.83517C14.3139 4.96503 14.1446 5.05347 13.9603 5.0893C13.7761 5.12513 13.585 5.10674 13.4115 5.03646C13.2379 4.96618 13.0895 4.84716 12.9851 4.69446C12.8807 4.54176 12.825 4.36223 12.825 4.17857C12.825 3.9323 12.9251 3.69611 13.1032 3.52197C13.2814 3.34783 13.523 3.25 13.775 3.25ZM13.775 1.85714C13.3053 1.85714 12.8461 1.99329 12.4555 2.24837C12.065 2.50346 11.7605 2.86601 11.5808 3.2902C11.401 3.71438 11.354 4.18115 11.4456 4.63146C11.5373 5.08177 11.7635 5.49541 12.0956 5.82007C12.4278 6.14473 12.851 6.36582 13.3117 6.45539C13.7724 6.54497 14.2499 6.499 14.6839 6.32329C15.1178 6.14759 15.4888 5.85004 15.7497 5.46829C16.0107 5.08653 16.15 4.63771 16.15 4.17857C16.15 3.56289 15.8998 2.97243 15.4544 2.53707C15.009 2.10172 14.4049 1.85714 13.775 1.85714Z" fill="#00678F"/>
</svg>
