<svg width="416" height="180" viewBox="0 0 416 180" fill="none" xmlns="http://www.w3.org/2000/svg">
<g filter="url(#filter0_d)">
<path d="M123.2 119.6H102.4V144H72.0001V119.6H8.6001V96.8L74.6001 11.2H102.4V94H123.2V119.6ZM73.4001 51.2L40.4001 94H72.4001L73.4001 51.2Z" fill="#00678F"/>
</g>
<path d="M256.001 138.5C263.107 141.875 265.984 147.902 266.448 154M266.448 154C267.291 165.066 260.5 174 256.001 172.5C247.609 169.702 252.896 152.5 266.448 154ZM266.448 154L291 158.5M291 158.5C304 164.5 289.999 177 286.5 176C273.03 172.151 284.217 157.354 291 158.5ZM291 158.5L346.001 172.5" stroke="url(#paint0_linear)" stroke-width="6"/>
<g filter="url(#filter1_d)">
<path d="M407.2 119.6H386.4V144H356V119.6H292.6V96.8L358.6 11.2H386.4V94H407.2V119.6ZM357.4 51.2L324.4 94H356.4L357.4 51.2Z" fill="#00678F"/>
</g>
<path d="M276.717 93.3129C269.94 91.9408 263.517 89.5387 257.647 86.1891C254.791 84.5094 251.139 84.6187 248.704 86.2685L234.326 93.1619C221.562 82.6265 214.257 71.6193 209.6 55.8877L221.23 45.5667C224.004 43.7269 225.514 40.5176 225.166 37.1548C224.355 30.3998 224.636 23.541 226.006 16.7762C226.974 11.9945 223.871 7.31553 219.089 6.3473L198.853 2.24966C194.071 1.28143 189.392 4.38464 188.424 9.16635C177.127 64.9556 213.329 119.541 269.118 130.837C273.9 131.805 278.579 128.702 279.547 123.921L283.633 103.742C284.602 98.9602 281.498 94.2812 276.717 93.3129Z" fill="url(#paint1_linear)" fill-opacity="0.2"/>
<path d="M260.5 98.5701C252.296 98.5701 244.26 97.2891 236.644 94.776C232.927 93.495 228.706 94.482 226.263 96.9741L211.164 108.377C193.839 99.1302 182.751 88.0491 173.63 70.85L184.725 56.108C187.518 53.315 188.519 49.2269 187.322 45.398C184.788 37.733 183.5 29.69 183.5 21.5C183.5 15.7109 178.789 11 173 11H148.5C142.711 11 138 15.7109 138 21.5C138 89.043 192.957 144 260.5 144C266.289 144 271 139.289 271 133.5V109.07C271 103.281 266.289 98.5701 260.5 98.5701Z" fill="#FFCC00"/>
<path d="M283.717 116.769C278.442 113.964 273.712 110.392 269.675 106.172C267.722 104.077 264.671 103.268 262.248 104.036L248.639 106.205C240.661 94.3345 237.32 83.4175 237.337 69.2393L249.512 63.5538C252.263 62.7129 254.305 60.4265 254.844 57.5551C255.836 51.7598 257.758 46.1475 260.559 40.8812C262.538 37.1586 261.12 32.5185 257.397 30.5389L241.643 22.1611C237.921 20.1815 233.281 21.5998 231.301 25.3223C208.205 68.7539 224.751 122.885 268.182 145.982C271.905 147.961 276.545 146.543 278.524 142.82L286.878 127.111C288.858 123.389 287.44 118.749 283.717 116.769Z" fill="url(#paint2_linear)" fill-opacity="0.2"/>
<path d="M292.848 139.441C288.868 136.102 285.491 132.211 282.819 127.893C281.537 125.759 279.088 124.52 276.888 124.735L264.924 124.123C260.282 112.587 259.412 102.7 261.985 90.6449L273.366 88.0079C275.858 87.7895 278.007 86.2136 278.984 83.8691C280.874 79.1195 283.522 74.6936 286.855 70.7205C289.21 67.9121 288.842 63.7099 286.033 61.3542L274.148 51.3848C271.34 49.0292 267.137 49.3976 264.782 52.206C237.298 84.9723 241.596 133.996 274.362 161.48C277.17 163.835 281.373 163.467 283.728 160.658L293.669 148.807C296.025 145.999 295.656 141.796 292.848 139.441Z" fill="url(#paint3_linear)" fill-opacity="0.2"/>
<defs>
<filter id="filter0_d" x="0.600098" y="7.20001" width="130.6" height="148.8" filterUnits="userSpaceOnUse" color-interpolation-filters="sRGB">
<feFlood flood-opacity="0" result="BackgroundImageFix"/>
<feColorMatrix in="SourceAlpha" type="matrix" values="0 0 0 0 0 0 0 0 0 0 0 0 0 0 0 0 0 0 127 0"/>
<feOffset dy="4"/>
<feGaussianBlur stdDeviation="4"/>
<feColorMatrix type="matrix" values="0 0 0 0 0.92549 0 0 0 0 0.941176 0 0 0 0 0.945098 0 0 0 1 0"/>
<feBlend mode="normal" in2="BackgroundImageFix" result="effect1_dropShadow"/>
<feBlend mode="normal" in="SourceGraphic" in2="effect1_dropShadow" result="shape"/>
</filter>
<filter id="filter1_d" x="284.6" y="7.20001" width="130.6" height="148.8" filterUnits="userSpaceOnUse" color-interpolation-filters="sRGB">
<feFlood flood-opacity="0" result="BackgroundImageFix"/>
<feColorMatrix in="SourceAlpha" type="matrix" values="0 0 0 0 0 0 0 0 0 0 0 0 0 0 0 0 0 0 127 0"/>
<feOffset dy="4"/>
<feGaussianBlur stdDeviation="4"/>
<feColorMatrix type="matrix" values="0 0 0 0 0.92549 0 0 0 0 0.941176 0 0 0 0 0.945098 0 0 0 1 0"/>
<feBlend mode="normal" in2="BackgroundImageFix" result="effect1_dropShadow"/>
<feBlend mode="normal" in="SourceGraphic" in2="effect1_dropShadow" result="shape"/>
</filter>
<linearGradient id="paint0_linear" x1="257.5" y1="143.5" x2="349.5" y2="181.5" gradientUnits="userSpaceOnUse">
<stop stop-color="#FFCC00"/>
<stop offset="1" stop-color="#FFCC00" stop-opacity="0"/>
</linearGradient>
<linearGradient id="paint1_linear" x1="245.108" y1="11.6157" x2="222.863" y2="121.471" gradientUnits="userSpaceOnUse">
<stop stop-color="#FFCC00"/>
<stop offset="1" stop-color="#FFCC00" stop-opacity="0"/>
</linearGradient>
<linearGradient id="paint2_linear" x1="277.653" y1="41.3104" x2="232.173" y2="126.832" gradientUnits="userSpaceOnUse">
<stop stop-color="#FFCC00"/>
<stop offset="1" stop-color="#FFCC00" stop-opacity="0"/>
</linearGradient>
<linearGradient id="paint3_linear" x1="301.315" y1="74.1719" x2="247.195" y2="138.693" gradientUnits="userSpaceOnUse">
<stop stop-color="#FFCC00"/>
<stop offset="1" stop-color="#FFCC00" stop-opacity="0"/>
</linearGradient>
</defs>
</svg>
