<svg width="422" height="138" viewBox="0 0 422 138" fill="none" xmlns="http://www.w3.org/2000/svg">
<path d="M33.652 51.794C36.848 51.794 39.95 51.1673 42.958 49.914C46.0287 48.598 48.7547 46.9373 51.136 44.932L57.998 54.426C54.614 57.81 50.6347 60.536 46.06 62.604C41.4853 64.6093 36.4093 65.612 30.832 65.612C24.6907 65.612 19.27 64.296 14.57 61.664C9.93267 59.032 6.32933 55.3347 3.76 50.572C1.25333 45.8093 0 40.2947 0 34.028C0 27.3853 1.41 21.4947 4.23 16.356C7.05 11.2173 10.9353 7.20667 15.886 4.324C20.8993 1.44133 26.5707 0 32.9 0C39.9187 0 46.5613 1.598 52.828 4.794V19.552C50.196 17.5467 47.2507 15.98 43.992 14.852C40.7333 13.724 37.506 13.16 34.31 13.16C28.7327 13.16 24.346 14.9147 21.15 18.424C17.954 21.9333 16.356 26.602 16.356 32.43C16.356 38.258 17.9227 42.958 21.056 46.53C24.1893 50.0393 28.388 51.794 33.652 51.794Z" fill="#00678F"/>
<path d="M94.5721 65.612C88.1801 65.612 82.5401 64.296 77.6521 61.664C72.8267 58.9693 69.0667 55.2093 66.3721 50.384C63.6774 45.5587 62.3301 40.0127 62.3301 33.746C62.3301 27.1033 63.7087 21.244 66.4661 16.168C69.2861 11.0293 73.2027 7.05 78.2161 4.23C83.2921 1.41 89.1514 0 95.7941 0C102.186 0 107.795 1.34733 112.62 4.042C117.508 6.674 121.268 10.4027 123.9 15.228C126.595 20.0533 127.942 25.5993 127.942 31.866C127.942 38.5087 126.563 44.3993 123.806 49.538C121.049 54.614 117.132 58.562 112.056 61.382C107.043 64.202 101.215 65.612 94.5721 65.612ZM95.7941 53.016C100.682 53.016 104.567 51.23 107.45 47.658C110.333 44.086 111.774 39.3547 111.774 33.464C111.774 27.1973 110.207 22.1527 107.074 18.33C104.003 14.5073 99.8361 12.596 94.5721 12.596C89.6841 12.596 85.7674 14.382 82.8221 17.954C79.9394 21.526 78.4981 26.2573 78.4981 32.148C78.4981 38.4147 80.0647 43.4593 83.1981 47.282C86.3314 51.1047 90.5301 53.016 95.7941 53.016Z" fill="#00678F"/>
<path d="M203.727 1.88V63.732H188.593V26.32L175.715 45.308H167.631L153.719 26.32V63.732H139.807V1.88H153.813L172.707 27.824L189.815 1.88H203.727Z" fill="#00678F"/>
<path d="M219.487 1.88H234.903V63.732H219.487V1.88Z" fill="#00678F"/>
<path d="M308.414 1.88V63.732H295.63L264.61 25.662V63.732H250.698V1.88H264.516L294.502 38.822V1.88H308.414Z" fill="#00678F"/>
<path d="M378.653 32.336V58.186C375.583 60.3167 371.729 62.1027 367.091 63.544C362.454 64.9227 357.691 65.612 352.803 65.612C346.349 65.612 340.646 64.3273 335.695 61.758C330.807 59.126 327.016 55.4287 324.321 50.666C321.627 45.9033 320.279 40.3573 320.279 34.028C320.279 27.5107 321.689 21.6827 324.509 16.544C327.329 11.3427 331.246 7.30067 336.259 4.418C341.335 1.47267 347.069 0 353.461 0C357.284 0 361.201 0.532667 365.211 1.598C369.222 2.60067 372.575 3.854 375.269 5.358V20.21C372.449 18.2047 369.316 16.544 365.869 15.228C362.423 13.8493 358.882 13.16 355.247 13.16C349.545 13.16 344.97 14.946 341.523 18.518C338.139 22.09 336.447 26.8527 336.447 32.806C336.447 36.6913 337.168 40.1693 338.609 43.24C340.113 46.248 342.244 48.598 345.001 50.29C347.759 51.982 350.955 52.828 354.589 52.828C358.161 52.828 361.733 52.076 365.305 50.572V32.336H378.653Z" fill="#00678F"/>
<path d="M194.444 137.092C190.727 137.092 186.941 136.503 183.088 135.324C179.235 134.145 175.925 132.649 173.16 130.836L176.424 123.016C179.507 124.557 182.612 125.781 185.74 126.688C188.913 127.549 191.883 127.98 194.648 127.98C197.096 127.98 198.977 127.617 200.292 126.892C201.607 126.167 202.264 125.124 202.264 123.764C202.264 122.857 201.924 122.155 201.244 121.656C200.609 121.112 199.635 120.681 198.32 120.364C197.005 120.001 194.875 119.571 191.928 119.072C186.171 118.075 181.864 116.465 179.008 114.244C176.152 112.023 174.724 108.985 174.724 105.132C174.724 102.095 175.54 99.42 177.172 97.108C178.849 94.7507 181.161 92.9147 184.108 91.6C187.1 90.2853 190.455 89.628 194.172 89.628C196.937 89.628 199.861 89.9907 202.944 90.716C206.027 91.396 208.633 92.3027 210.764 93.436V103.636C208.316 102.049 205.732 100.848 203.012 100.032C200.292 99.1707 197.572 98.74 194.852 98.74C192.087 98.74 189.888 99.1707 188.256 100.032C186.624 100.893 185.808 102.072 185.808 103.568C185.808 104.792 186.397 105.676 187.576 106.22C188.755 106.764 190.931 107.353 194.104 107.988L197.028 108.6C200.247 109.28 202.967 110.073 205.188 110.98C207.455 111.841 209.381 113.179 210.968 114.992C212.555 116.805 213.348 119.208 213.348 122.2C213.348 125.147 212.555 127.753 210.968 130.02C209.381 132.287 207.16 134.032 204.304 135.256C201.448 136.48 198.161 137.092 194.444 137.092Z" fill="#FFCC00"/>
<path d="M377.692 90.988V135.732H368.444L346.004 108.192V135.732H335.94V90.988H345.936L367.628 117.712V90.988H377.692Z" fill="#FFCC00"/>
<path d="M390.091 136.116C388.779 136.116 387.659 135.668 386.731 134.772C385.835 133.876 385.387 132.788 385.387 131.508C385.387 130.228 385.851 129.14 386.779 128.244C387.707 127.316 388.811 126.852 390.091 126.852C391.371 126.852 392.475 127.316 393.403 128.244C394.331 129.14 394.795 130.228 394.795 131.508C394.795 132.788 394.331 133.876 393.403 134.772C392.507 135.668 391.403 136.116 390.091 136.116Z" fill="#FFCC00"/>
<path d="M403.45 136.116C402.138 136.116 401.018 135.668 400.09 134.772C399.194 133.876 398.746 132.788 398.746 131.508C398.746 130.228 399.21 129.14 400.138 128.244C401.066 127.316 402.17 126.852 403.45 126.852C404.73 126.852 405.834 127.316 406.762 128.244C407.69 129.14 408.154 130.228 408.154 131.508C408.154 132.788 407.69 133.876 406.762 134.772C405.866 135.668 404.762 136.116 403.45 136.116Z" fill="#FFCC00"/>
<path d="M416.81 136.116C415.498 136.116 414.378 135.668 413.45 134.772C412.554 133.876 412.106 132.788 412.106 131.508C412.106 130.228 412.57 129.14 413.498 128.244C414.426 127.316 415.53 126.852 416.81 126.852C418.09 126.852 419.194 127.316 420.122 128.244C421.05 129.14 421.514 130.228 421.514 131.508C421.514 132.788 421.05 133.876 420.122 134.772C419.226 135.668 418.122 136.116 416.81 136.116Z" fill="#FFCC00"/>
<path d="M247.376 137.092C242.752 137.092 238.672 136.14 235.136 134.236C231.645 132.287 228.925 129.567 226.976 126.076C225.027 122.586 224.052 118.574 224.052 114.04C224.052 109.235 225.049 104.996 227.044 101.324C229.084 97.6071 231.917 94.7285 235.544 92.6885C239.216 90.6485 243.455 89.6285 248.26 89.6285C252.884 89.6285 256.941 90.6031 260.432 92.5525C263.968 94.4565 266.688 97.1538 268.592 100.644C270.541 104.135 271.516 108.147 271.516 112.68C271.516 117.486 270.519 121.747 268.524 125.464C266.529 129.136 263.696 131.992 260.024 134.032C256.397 136.072 252.181 137.092 247.376 137.092ZM248.26 127.98C251.796 127.98 254.607 126.688 256.692 124.104C258.777 121.52 259.82 118.098 259.82 113.836C259.82 109.303 258.687 105.654 256.42 102.888C254.199 100.123 251.184 98.7405 247.376 98.7405C243.84 98.7405 241.007 100.032 238.876 102.616C236.791 105.2 235.748 108.623 235.748 112.884C235.748 117.418 236.881 121.067 239.148 123.832C241.415 126.598 244.452 127.98 248.26 127.98Z" fill="#FFCC00"/>
<path d="M300.567 137.092C295.943 137.092 291.863 136.14 288.327 134.236C284.837 132.287 282.117 129.567 280.167 126.076C278.218 122.586 277.243 118.574 277.243 114.04C277.243 109.235 278.241 104.996 280.235 101.324C282.275 97.6071 285.109 94.7285 288.735 92.6885C292.407 90.6485 296.646 89.6285 301.451 89.6285C306.075 89.6285 310.133 90.6031 313.623 92.5525C317.159 94.4565 319.879 97.1538 321.783 100.644C323.733 104.135 324.707 108.147 324.707 112.68C324.707 117.486 323.71 121.747 321.715 125.464C319.721 129.136 316.887 131.992 313.215 134.032C309.589 136.072 305.373 137.092 300.567 137.092ZM301.451 127.98C304.987 127.98 307.798 126.688 309.883 124.104C311.969 121.52 313.011 118.098 313.011 113.836C313.011 109.303 311.878 105.654 309.611 102.888C307.39 100.123 304.375 98.7405 300.567 98.7405C297.031 98.7405 294.198 100.032 292.067 102.616C289.982 105.2 288.939 108.623 288.939 112.884C288.939 117.418 290.073 121.067 292.339 123.832C294.606 126.598 297.643 127.98 301.451 127.98Z" fill="#FFCC00"/>
<rect x="232.577" y="92.9937" width="12" height="15" transform="rotate(-25.1546 232.577 92.9937)" fill="white"/>
<rect x="286.052" y="92.8326" width="12" height="15" transform="rotate(-25.1546 286.052 92.8326)" fill="white"/>
</svg>
