<svg width="22" height="22" viewBox="0 0 22 22" fill="none" xmlns="http://www.w3.org/2000/svg">
<mask id="mask0" mask-type="alpha" maskUnits="userSpaceOnUse" x="0" y="0" width="22" height="22">
<circle cx="11" cy="11" r="11" fill="#C4C4C4"/>
</mask>
<g mask="url(#mask0)">
<path d="M27.1638 21.9999H-2.76381C-4.21979 21.9999 -5.40002 20.8741 -5.40002 19.4851V2.5148C-5.40002 1.12594 -4.21979 0 -2.76381 0H27.1638C28.6197 0 29.8 1.12587 29.8 2.5148V19.4852C29.8 20.8741 28.6197 21.9999 27.1638 21.9999Z" fill="#FF4B55"/>
<path d="M-2.76381 0C-4.21979 0 -5.40002 1.12587 -5.40002 2.5148V19.4852C-5.40002 20.8741 -4.21979 22 -2.76381 22H7.34478V0H-2.76381Z" fill="#73AF00"/>
<path d="M7.34965 16.206C10.3637 16.206 12.807 13.8752 12.807 11C12.807 8.12476 10.3637 5.79395 7.34965 5.79395C4.33562 5.79395 1.89227 8.12476 1.89227 11C1.89227 13.8752 4.33562 16.206 7.34965 16.206Z" fill="#FFE15A"/>
<path d="M9.17027 9.26298V11.5787C9.17027 12.5365 8.35352 13.3156 7.34956 13.3156C6.3456 13.3156 5.52885 12.5365 5.52885 11.5787V9.26298H9.17027ZM9.77712 8.1051H4.92193C4.58677 8.1051 4.315 8.36435 4.315 8.68407V11.5788C4.315 13.1775 5.67364 14.4735 7.34949 14.4735C9.02534 14.4735 10.384 13.1775 10.384 11.5788V8.68407C10.384 8.36435 10.1123 8.1051 9.77712 8.1051Z" fill="#FF4B55"/>
<path d="M9.17028 9.26306V11.5788C9.17028 12.5365 8.35353 13.3157 7.34958 13.3157C6.34562 13.3157 5.52887 12.5365 5.52887 11.5788V9.26306H9.17028Z" fill="#F5F5F5"/>
<path d="M4.91729 8.97375C5.08489 8.97375 5.22075 8.84414 5.22075 8.68426C5.22075 8.52438 5.08489 8.39478 4.91729 8.39478C4.7497 8.39478 4.61383 8.52438 4.61383 8.68426C4.61383 8.84414 4.7497 8.97375 4.91729 8.97375Z" fill="#FFE15A"/>
<path d="M9.7724 8.97375C9.93999 8.97375 10.0759 8.84414 10.0759 8.68426C10.0759 8.52438 9.93999 8.39478 9.7724 8.39478C9.6048 8.39478 9.46893 8.52438 9.46893 8.68426C9.46893 8.84414 9.6048 8.97375 9.7724 8.97375Z" fill="#FFE15A"/>
<path d="M4.91729 11.2895C5.08489 11.2895 5.22075 11.1599 5.22075 11.0001C5.22075 10.8402 5.08489 10.7106 4.91729 10.7106C4.7497 10.7106 4.61383 10.8402 4.61383 11.0001C4.61383 11.1599 4.7497 11.2895 4.91729 11.2895Z" fill="#FFE15A"/>
<path d="M9.7724 11.2895C9.93999 11.2895 10.0759 11.1599 10.0759 11.0001C10.0759 10.8402 9.93999 10.7106 9.7724 10.7106C9.6048 10.7106 9.46893 10.8402 9.46893 11.0001C9.46893 11.1599 9.6048 11.2895 9.7724 11.2895Z" fill="#FFE15A"/>
<path d="M7.34478 8.97375C7.51238 8.97375 7.64825 8.84414 7.64825 8.68426C7.64825 8.52438 7.51238 8.39478 7.34478 8.39478C7.17719 8.39478 7.04132 8.52438 7.04132 8.68426C7.04132 8.84414 7.17719 8.97375 7.34478 8.97375Z" fill="#FFE15A"/>
<path d="M9.16674 13.4241C9.33434 13.4241 9.47021 13.2945 9.47021 13.1346C9.47021 12.9747 9.33434 12.8451 9.16674 12.8451C8.99915 12.8451 8.86328 12.9747 8.86328 13.1346C8.86328 13.2945 8.99915 13.4241 9.16674 13.4241Z" fill="#FFE15A"/>
<path d="M5.55877 13.4241C5.72637 13.4241 5.86224 13.2945 5.86224 13.1346C5.86224 12.9747 5.72637 12.8451 5.55877 12.8451C5.39117 12.8451 5.25531 12.9747 5.25531 13.1346C5.25531 13.2945 5.39117 13.4241 5.55877 13.4241Z" fill="#FFE15A"/>
<path d="M7.74142 10.853V11.3516C7.74142 11.5578 7.56556 11.7256 7.34941 11.7256C7.13326 11.7256 6.9574 11.5578 6.9574 11.3516V10.853H7.74142Z" fill="#41479B"/>
<path d="M7.74142 9.67126V10.1698C7.74142 10.376 7.56556 10.5438 7.34941 10.5438C7.13326 10.5438 6.9574 10.376 6.9574 10.1698V9.67126H7.74142Z" fill="#41479B"/>
<path d="M7.74142 12.0472V12.5458C7.74142 12.752 7.56556 12.9198 7.34941 12.9198C7.13326 12.9198 6.9574 12.752 6.9574 12.5458V12.0472H7.74142Z" fill="#41479B"/>
<path d="M8.79721 10.853V11.3516C8.79721 11.5578 8.62135 11.7256 8.4052 11.7256C8.18905 11.7256 8.01318 11.5578 8.01318 11.3516V10.853H8.79721Z" fill="#41479B"/>
<path d="M6.68582 10.853V11.3516C6.68582 11.5578 6.50996 11.7256 6.29381 11.7256C6.07766 11.7256 5.90179 11.5578 5.90179 11.3516V10.853H6.68582Z" fill="#41479B"/>
</g>
</svg>
