<svg width="15" height="16" viewBox="0 0 15 16" fill="none" xmlns="http://www.w3.org/2000/svg">
<path d="M3.86512 8H5.41829V9.6H3.86512V8ZM14.7373 3.2V14.4C14.7373 14.8243 14.5737 15.2313 14.2824 15.5314C13.9911 15.8314 13.596 16 13.1841 16H2.31196C1.44995 16 0.758789 15.28 0.758789 14.4V3.2C0.758789 2.77565 0.922426 2.36869 1.2137 2.06863C1.50498 1.76857 1.90003 1.6 2.31196 1.6H3.08854V0H4.64171V1.6H10.8544V0H12.4075V1.6H13.1841C13.596 1.6 13.9911 1.76857 14.2824 2.06863C14.5737 2.36869 14.7373 2.77565 14.7373 3.2ZM2.31196 4.8H13.1841V3.2H2.31196V4.8ZM13.1841 14.4V6.4H2.31196V14.4H13.1841ZM10.0778 9.6V8H11.631V9.6H10.0778ZM6.97146 9.6V8H8.52462V9.6H6.97146ZM3.86512 11.2H5.41829V12.8H3.86512V11.2ZM10.0778 12.8V11.2H11.631V12.8H10.0778ZM6.97146 12.8V11.2H8.52462V12.8H6.97146Z" fill="#666666"/>
</svg>
