<svg width="19" height="19" viewBox="0 0 19 19" fill="none" xmlns="http://www.w3.org/2000/svg">
<path d="M11.5 8.99984H12.75V12.5415L15.1333 13.9498L14.5083 14.9665L11.5 13.1665V8.99984ZM12.3333 6.49984C12.9083 6.49984 13.475 6.58317 14 6.7415V2.9165L11.5 3.88317V6.55817C11.775 6.49984 12.05 6.49984 12.3333 6.49984ZM18.1666 12.3332C18.1666 13.8803 17.552 15.364 16.4581 16.458C15.3641 17.5519 13.8804 18.1665 12.3333 18.1665C9.83329 18.1665 7.66663 16.5665 6.84996 14.3332L5.66663 13.9165L1.21663 15.6415L1.08329 15.6665C0.972786 15.6665 0.866805 15.6226 0.788665 15.5445C0.710525 15.4663 0.666626 15.3603 0.666626 15.2498V2.64984C0.666626 2.45817 0.791626 2.30817 0.966626 2.24984L5.66663 0.666504L10.6666 2.4165L15.1166 0.691504L15.25 0.666504C15.3605 0.666504 15.4664 0.710403 15.5446 0.788543C15.6227 0.866683 15.6666 0.972664 15.6666 1.08317V7.5415C17.175 8.58317 18.1666 10.3498 18.1666 12.3332ZM6.49996 12.3332C6.49996 10.0082 7.85829 7.99984 9.83329 7.05817V3.8915L6.49996 2.72484V12.4415C6.49996 12.4082 6.49996 12.3665 6.49996 12.3332ZM12.3333 8.1665C11.2282 8.1665 10.1684 8.60549 9.38701 9.38689C8.60561 10.1683 8.16663 11.2281 8.16663 12.3332C8.16663 13.4382 8.60561 14.498 9.38701 15.2794C10.1684 16.0608 11.2282 16.4998 12.3333 16.4998C13.4384 16.4998 14.4982 16.0608 15.2796 15.2794C16.061 14.498 16.5 13.4382 16.5 12.3332C16.5 11.2281 16.061 10.1683 15.2796 9.38689C14.4982 8.60549 13.4384 8.1665 12.3333 8.1665ZM2.33329 3.54984V13.4248L4.83329 12.4582V2.70817L2.33329 3.54984Z" fill="#666666"/>
</svg>
